<!-- Generator: Adobe Illustrator 21.1.0, SVG Export Plug-In  -->
<svg version="1.1"
	 xmlns="http://www.w3.org/2000/svg" xmlns:xlink="http://www.w3.org/1999/xlink" xmlns:a="http://ns.adobe.com/AdobeSVGViewerExtensions/3.0/"
	 x="0px" y="0px" width="252.2px" height="216.3px" viewBox="0 0 252.2 216.3" style="enable-background:new 0 0 252.2 216.3;"
	 xml:space="preserve">
<style type="text/css">
	.st0{fill:#E7EAF6;}
	.st1{fill:#D9DED7;}
	.st2{fill:url(#SVGID_1_);}
	.st3{fill:#404747;}
	.st4{fill:#E4E7F0;}
	.st5{fill:#919595;}
	.st6{fill:#E5E7F0;}
	.st7{fill:#E8272A;}
	.st8{fill:url(#SVGID_2_);}
	.st9{fill:url(#SVGID_3_);}
	.st10{fill:#8C9090;}
	.st11{fill:url(#SVGID_4_);}
	.st12{fill:url(#SVGID_5_);}
	.st13{fill:url(#SVGID_6_);}
	.st14{fill:url(#SVGID_7_);}
	.st15{fill:url(#SVGID_8_);}
	.st16{fill:url(#SVGID_9_);}
	.st17{fill:url(#SVGID_10_);}
	.st18{fill:url(#SVGID_11_);}
	.st19{fill:url(#SVGID_12_);}
	.st20{fill:url(#SVGID_13_);}
	.st21{fill:url(#SVGID_14_);}
	.st22{fill:url(#SVGID_15_);}
	.st23{fill:#FFFFFF;}
	.st24{fill:#E3E6E9;}
	.st25{fill:url(#SVGID_16_);}
	.st26{fill:url(#SVGID_17_);}
	.st27{fill:url(#SVGID_18_);}
	.st28{fill:url(#SVGID_19_);}
	.st29{fill:url(#SVGID_20_);}
	.st30{fill:#DCDEE5;}
	.st31{fill:url(#SVGID_21_);}
	.st32{fill:url(#SVGID_22_);}
	.st33{fill:#E6E7E7;}
	.st34{fill:#B2B5B5;}
	.st35{fill:url(#SVGID_23_);}
	.st36{fill:url(#SVGID_24_);}
	.st37{clip-path:url(#SVGID_26_);}
	.st38{fill:#E6925C;}
	.st39{fill:#7C4F19;}
	.st40{fill:#EDA67B;}
	.st41{clip-path:url(#SVGID_28_);}
	.st42{fill:#D87C48;}
	.st43{fill:#535938;}
	.st44{fill:none;stroke:#000000;stroke-width:1.744;stroke-linecap:round;stroke-miterlimit:10;}
	.st45{fill:none;stroke:#542F0A;stroke-width:2.6976;stroke-miterlimit:10;}
	.st46{opacity:0.3;fill:#262626;}
	.st47{fill:url(#SVGID_29_);}
	.st48{fill:url(#SVGID_30_);}
	.st49{fill:url(#SVGID_31_);}
	.st50{fill:url(#SVGID_32_);}
	.st51{fill:url(#SVGID_33_);}
	.st52{fill:url(#SVGID_34_);}
	.st53{fill:url(#SVGID_35_);}
	.st54{fill:url(#SVGID_36_);}
	.st55{fill:url(#SVGID_37_);}
	.st56{fill:url(#SVGID_38_);}
	.st57{fill:url(#SVGID_39_);}
	.st58{fill:url(#SVGID_40_);}
	.st59{fill:url(#SVGID_41_);}
	.st60{fill:url(#SVGID_42_);}
	.st61{fill:url(#SVGID_43_);}
	.st62{fill:url(#SVGID_44_);}
	.st63{fill:url(#SVGID_45_);}
	.st64{fill:url(#SVGID_46_);}
	.st65{fill:url(#SVGID_47_);}
	.st66{fill:url(#SVGID_48_);}
	.st67{fill:url(#SVGID_49_);}
	.st68{fill:url(#SVGID_50_);}
	.st69{fill:url(#SVGID_51_);}
	.st70{fill:url(#SVGID_52_);}
	.st71{fill:url(#SVGID_53_);}
	.st72{fill:url(#SVGID_54_);}
	.st73{fill:url(#SVGID_55_);}
	.st74{fill:url(#SVGID_56_);}
	.st75{clip-path:url(#SVGID_58_);}
	.st76{clip-path:url(#SVGID_60_);}
	.st77{fill:url(#SVGID_61_);}
	.st78{fill:url(#SVGID_62_);}
	.st79{fill:url(#SVGID_63_);}
	.st80{fill:url(#SVGID_64_);}
</style>
<defs>
</defs>
<g>
	<g>
		<g>
			<g>
				<path class="st0" d="M173.6,80.1l-40.7-44.5c0.6,1,0.4,2.2-0.6,3.1l-78.1,71.4c-0.9,0.8-1.9,0.9-2.8,0.5l42.2,34.9
					c2.2,2.4,4.1,11.8,6.4,9.6l73.1-66.9C175.6,86.2,175.8,82.5,173.6,80.1z"/>
				<path class="st1" d="M173.6,80.1l-40.7-44.5c0.6,1,0.4,2.2-0.6,3.1l-78.1,71.4c-0.9,0.8-1.9,0.9-2.8,0.5l41.9,33.1
					c2.2,2.4,4.4,13.6,6.8,11.4l73.1-66.9C175.6,86.2,175.8,82.5,173.6,80.1z"/>
			</g>
			<g>
				<path class="st0" d="M50.1,109.4l-9.4-17.7c-0.7-1.4-0.3-3.4,0.9-4.5l68.8-63c1.2-1.1,3.3-1.3,4.6-0.5l16.8,10.9
					c1.6,1.1,1.8,3,0.5,4.2l-78.1,71.4C52.9,111.5,51,111.1,50.1,109.4z"/>
				
					<linearGradient id="SVGID_1_" gradientUnits="userSpaceOnUse" x1="78.0102" y1="-698.3311" x2="42.2629" y2="-698.3311" gradientTransform="matrix(0.675 0.7378 -0.7378 0.675 -473.8178 489.2126)">
					<stop  offset="0" style="stop-color:#E7EAF6"/>
					<stop  offset="1" style="stop-color:#828282"/>
				</linearGradient>
				<path class="st2" d="M132.1,34.8l-17.4-11.2c-0.9-0.6-2.3-0.5-3.6,0.1c0,0,0.1,0,0.1,0.1l16.8,11.1c1.4,0.9,1.4,2.9-0.2,4.2
					l-76.5,70c-0.4,0.3-0.7,0.6-1.1,0.7c0.9,1.4,2.7,1.5,4.2,0.2L132,39.1C133.6,37.7,133.6,35.7,132.1,34.8z"/>
				<g>
					<path class="st3" d="M115.5,43.4c-2.9,2.7-7.3,3.2-9.7,1.3c-2.3-1.9-1.9-5.5,0.9-8c2.8-2.5,7-3.2,9.5-1.5
						C118.7,37,118.4,40.7,115.5,43.4z"/>
					<path class="st1" d="M107.1,38.5c2.8-2.6,7.1-3.2,9.6-1.4c0.5,0.4,0.9,0.8,1.2,1.3c-0.1-1.2-0.6-2.4-1.7-3.1
						c-2.5-1.8-6.7-1.1-9.5,1.5c-2.2,2-2.9,4.7-2,6.7C104.7,41.7,105.5,39.9,107.1,38.5z"/>
				</g>
			</g>
			<path class="st1" d="M159.8,76.8c-0.2,2.8-0.5,5.7,1.2,8.3c2,3.1,5.3,5.4,8.9,6.5l3.4-3.1c2.4-2.2,2.5-5.9,0.4-8.2l-8.1-8.9
				C162.9,72.1,160.7,74.1,159.8,76.8z"/>
		</g>
		<g>
			<g>
				<g>
					<path class="st4" d="M208.2,71.9c-4.3,2.8-11.5,8.5-15.2,9c-5.7,0.6-10.7,0.2-17.9,1.4c-1.4,2.3,0.1,30.9,0.1,30.9
						c7.9-3.1,18.8-8,26.7-12c7.7-3.9,12-7.5,19.3-13.1L208.2,71.9z"/>
					<g>
						<path class="st5" d="M192.7,80.9c-0.1,0-0.3,0-0.4,0c2,7.2,4.7,14.3,8,21.1c0.1-0.1,0.2-0.1,0.3-0.2
							C197.4,95.1,194.7,88,192.7,80.9z"/>
						<path class="st5" d="M197.8,78.9c-0.1,0.1-0.2,0.1-0.3,0.2c3.5,6.2,7.5,12.2,12,17.7c0.1-0.1,0.2-0.1,0.3-0.2
							C205.3,91,201.3,85.1,197.8,78.9z"/>
						<path class="st5" d="M193.3,105.4c0.1-0.1,0.2-0.1,0.4-0.2c-1.7-8.1-2.7-16.1-3.1-24.2c-0.1,0-0.3,0-0.4,0
							C190.6,89.2,191.6,97.3,193.3,105.4z"/>
						<path class="st5" d="M195.6,80c-0.1,0.1-0.2,0.1-0.4,0.2c2.5,6.8,5.5,13.4,9.1,19.7c0.1-0.1,0.2-0.1,0.3-0.2
							C201.1,93.4,198,86.8,195.6,80z"/>
					</g>
					<path class="st1" d="M208.2,71.9c-1.3,0.9-2.9,2-4.6,3.2c-0.4,3.5,8,21.6,11.2,17.9c2-1.5,4.1-3.1,6.5-5L208.2,71.9z"/>
				</g>
				<g>
					<path class="st6" d="M187.6,80.2c-1.4,0-4.7,0.2-6.1,0.4c-1.9-0.3-4.7,1.2-6,0.8c-1.5-1.1-5.9-0.2-7.8,0.2
						c-1.6-1.1-3.6-1.8-5.1-2c-2-0.2-3.7-0.4-4.8-0.3c0.1,3.1-2.9,14.4-5.1,18.6c-2.7,5.1-12.4,17.5-12.3,23.8
						c4.7-0.6,10.1-2.7,16-2.9c7.2-0.3,12.2-2.5,20.7-4.8C179.1,111.6,195.2,91.8,187.6,80.2z"/>
					<path class="st1" d="M157.3,115.6c-1.4-0.7,0.9-5.5,0.9-6.7c0.5-3.3-0.7-4.6-3-5.8c9.2-16.7,3.8-23.7,2.7-23.7
						c0.1,3.1-2.9,14.4-5.1,18.6c-2.7,5.1-12.4,17.5-12.3,23.8c4.7-0.6,10.1-2.7,16-2.9c7.2-0.3,12.2-2.5,20.7-4.8
						c0.5-0.6,1.7-2.1,3.3-4.3C174.3,111.2,163.7,118.8,157.3,115.6z"/>
					<g>
						<path class="st3" d="M175.5,81.5c-0.8-0.6-2.4-0.6-4.1-0.4c0.2,3.1-0.9,5.5-1.3,8.6c1,1.8,4.6,3,7,1.8c1-3.7,1.8-6.8,1.6-10.5
							C177.5,81.3,176.2,81.7,175.5,81.5z"/>
						<path class="st3" d="M167.7,81.7c-1.1-0.8-2.3-1.3-3.5-1.7c-0.3,1.7-1.1,3.2-1.3,4.9c1.3,1.8,2.9,3,4.9,1.8
							c0.9-1.2,1.8-3.6,2.3-5.5C169.2,81.4,168.3,81.6,167.7,81.7z"/>
					</g>
					<path class="st1" d="M168.5,81.5c-0.3,0.1-0.6,0.1-0.9,0.2c-0.4-0.3-0.7-0.5-1.1-0.7c-1.1,1-1.8,3.2-1.3,4.1
						C165.7,86,167.7,82,168.5,81.5z"/>
					<path class="st1" d="M174.9,81.2c0.2,0.1,0.4,0.2,0.6,0.3c0.4,0.1,1,0.1,1.7-0.1c-1.9,1.4-3.3,3.8-3.6,3.3
						S174.1,81.9,174.9,81.2z"/>
					<path class="st7" d="M171.1,115.8c1.8-0.5,3.8-1.1,6-1.7c2-2.4,18.1-22.2,10.5-33.8c-1.4,0-4.7,0.2-6.1,0.4
						C185.3,85.2,179.1,100.6,171.1,115.8z"/>
				</g>
			</g>
			<g>
				<path class="st6" d="M204,72.5c2.9-3,14.9-11.7,20.2-10.2c-0.9-2.1,2.8-4.2,4-1.6c0-0.5,0.3-1.1,0.7-1.8
					c4.2,1.7,6.3-0.7,7.9-4.3c0.4-0.2,2.5-1.4,2.9-1.7c1-0.7,2.1-1.1,3.1-1.3c1.1,0.5,1.8,1.7,2.4,2.6c1,1.6,2.5,1.8,3.7,3.1
					c0.2,0.2,0.3,0.2,0.5,0.3c0.1,0.7,0.1,1.4-0.3,2.1c2.5,0.1,4.1,4,2.1,5.5c2.5,3-0.9,4.5-3,5.8c-2.6,1.7-6.3,3.3-9.9,2.8
					c1.7,1.5-0.6,3.8-2.7,2.5c-0.2,7.6-9.9,14.3-18.7,18.8C212.5,95.7,201.7,76.9,204,72.5z"/>
				<path class="st1" d="M232.1,61.8c0.6-0.7,5.8-3,6.8-4.6c1-0.7,2.5,2.8,1.8,3.9c-4.9-1.5-5.3-0.2-7,2.5c-1.7,2.7,2,4,3.6,7.3
					c1.7,3.6,7.8,1.9,8.5,0.3c-1.5-0.1-2.3-2.4-1-3.8c-2.2,0.3-3-2.5-1.9-3.9c-1.6,0.7-3.7-1.6-2.6-3.8c-2.1,0-3-1.6-2.6-3
					c0.5-1.6,1.1-2.7,2.8-3.8c0.4-0.2-0.9,1.5-0.5,1.4c1.4-0.6,3-1.4,4.3-1.5c0.4,0.4,0.7,0.9,0.9,1.3c1,1.6,2.5,1.8,3.7,3.1
					c0.2,0.2,0.3,0.2,0.5,0.3c0.1,0.7,0.1,1.4-0.3,2.1c2.5,0.1,4.1,4,2.1,5.5c2.5,3-0.9,4.5-3,5.8c-2.6,1.7-6.3,3.3-9.9,2.8
					l-9.1-11.5c-0.1-0.2-0.1-0.3,0-0.5C230.7,62.6,230.5,63.5,232.1,61.8z"/>
				<g>
					<g>
						<path class="st6" d="M247,70.7c-3.8,0.6-3.5-3.2-0.1-4.5c0.8-0.3,1.9-0.7,3.3-1.4c0.1,0,0.7,0,0.7,0c1.5,0.6,1.5,2.5,0.9,3.7
							c-0.3,0.7-1.1,1.2-1.6,1.4C249.3,70.1,248.4,70.5,247,70.7z"/>
						<path class="st1" d="M244.2,69.3c-0.1-1.1,0.8-2.5,2.6-3.2c0.8-0.3,1.9-0.7,3.3-1.4c0.1,0,0.7,0,0.7,0
							c0.4,0.2,0.6,0.4,0.8,0.6c0.1,0.2,0.2,0.3,0.3,0.5c-0.7-0.4-1.3-0.7-2.6-0.2c-0.7,0.3-2.1,0.9-2.7,1.1
							C245.8,67.1,244.9,68,244.2,69.3z"/>
						
							<linearGradient id="SVGID_2_" gradientUnits="userSpaceOnUse" x1="214.5085" y1="-2.2834" x2="219.7504" y2="-2.2834" gradientTransform="matrix(0.8929 0.4502 -0.4502 0.8929 53.8569 -27.4235)">
							<stop  offset="0" style="stop-color:#828282"/>
							<stop  offset="1" style="stop-color:#E7EAF6"/>
						</linearGradient>
						<path class="st8" d="M247.4,70.2c-3.8,0.6-2.3-1.8,1.1-3.1c0.8-0.3,3.2-1.4,3.3-0.7c0.1,0.7,0.1,1.5-0.2,2.1
							c-0.3,0.7-0.8,0.8-1.4,1C249.3,69.7,248.8,70,247.4,70.2z"/>
					</g>
					<g>
						<path class="st6" d="M252,62.2c0.1,0.5,0.2,1.4-0.6,1.9c-1.1,0.6-2.4,1.1-3.7,1.7c-6,2.7-6.8-1.9-2.1-4.4c0.7-0.4,2-1.1,3-1.5
							C251.1,59.3,251.7,61.2,252,62.2z"/>
						<path class="st1" d="M243.3,65.6c0.9,2,7.5-1.4,8.6-2.1c-0.1,0.2-0.3,0.5-0.5,0.6c-1.1,0.6-2.4,1.1-3.7,1.7
							c-6,2.7-6.8-1.9-2.1-4.4c0.7-0.4,2-1.1,3-1.5c1.5-0.4,2.4,0.1,2.8,0.8c-0.6-0.5-1.9-0.5-3.4,0.3
							C245.8,62.5,242.5,63.8,243.3,65.6z"/>
						
							<linearGradient id="SVGID_3_" gradientUnits="userSpaceOnUse" x1="211.4517" y1="-6.1214" x2="217.3785" y2="-6.1214" gradientTransform="matrix(0.8929 0.4502 -0.4502 0.8929 53.8569 -27.4235)">
							<stop  offset="0" style="stop-color:#828282"/>
							<stop  offset="1" style="stop-color:#E7EAF6"/>
						</linearGradient>
						<path class="st9" d="M251.3,63.5c-1.6,0.7-5.1,2-6.2,2.2c-1.7,0.2-1.4-1.2,0.7-2.3c0.7-0.4,3.7-1.6,4.9-2.1
							C251.6,61.1,252.1,63.2,251.3,63.5z"/>
					</g>
					<g>
						<path class="st6" d="M239.7,53.7c0.6-0.5,1.6-1.4,2.4-1.9c2.1-1.1,3.3,0.6,3.9,1.5c0.2,0.4,0.6,1.3,0,1.9
							c-0.9,0.8-1.9,1.5-3,2.3C238.3,61.1,236.1,56.9,239.7,53.7z"/>
						<path class="st10" d="M238.9,54.5c1.5,0.8,2.8,1.7,3.1,3.6C238.4,60.2,236.7,57.3,238.9,54.5z"/>
						<path class="st1" d="M240.3,54.1c1.4-1.3,2.3-2.2,4-2.5c-0.6-0.3-1.3-0.3-2.2,0.2c-0.8,0.6-1.8,1.4-2.4,1.9
							c-3.6,3.2-1.4,7.3,3.4,3.7c1.1-0.8,2.1-1.5,3-2.3c0.1-0.2,0.2-0.3,0.3-0.5c-0.7,0.7-1.5,1-2.4,1.4
							C242.8,55.6,241.5,54.5,240.3,54.1z"/>
						
							<linearGradient id="SVGID_4_" gradientUnits="userSpaceOnUse" x1="205.4044" y1="-13.0584" x2="208.4833" y2="-13.0584" gradientTransform="matrix(0.8929 0.4502 -0.4502 0.8929 53.8569 -27.4235)">
							<stop  offset="0" style="stop-color:#828282"/>
							<stop  offset="1" style="stop-color:#E7EAF6"/>
						</linearGradient>
						<path class="st11" d="M245.8,53.3c0.3,0.4,0.3,1.2,0.2,1.3c-0.7,0.5-1.8,1.1-2.4,0.8c-0.4-0.2-1.1-0.5-1-0.9
							c0.2-0.6,1.2-1.5,2.4-2.2C245,52.3,245.4,52.8,245.8,53.3z"/>
					</g>
					<g>
						<path class="st6" d="M249.4,57.3c0.2,0.5,0.4,1.4-0.2,2c-1,0.8-2.3,1.5-3.5,2.3c-5.7,3.6-7.4-1-3.1-4.1
							c0.7-0.5,1.9-1.4,2.9-1.9C247.9,54.5,248.9,56.3,249.4,57.3z"/>
						<path class="st1" d="M243.8,62.2c0.7-0.3,5.4-3.3,5.7-3.3c-0.1,0.2-0.2,0.3-0.3,0.5c-1,0.8-2.3,1.5-3.5,2.3
							c-5.7,3.6-7.4-1-3.1-4.1c0.7-0.5,1.9-1.4,2.9-1.9c1-0.4,1.8-0.4,2.4-0.1c-0.5,0-2.1,1-2.6,1.5c0.6,0.8,1,2.7-1,4.1
							c-0.7,0.5-2.9,0.3-3.6,0.3"/>
						
							<linearGradient id="SVGID_5_" gradientUnits="userSpaceOnUse" x1="210.31" y1="-10.5521" x2="213.2683" y2="-10.5521" gradientTransform="matrix(0.8929 0.4502 -0.4502 0.8929 53.8569 -27.4235)">
							<stop  offset="0" style="stop-color:#828282"/>
							<stop  offset="1" style="stop-color:#E7EAF6"/>
						</linearGradient>
						<path class="st12" d="M249.2,57.5c0.1,0.3,0.2,1.2,0,1.2c-1.2,0.8-3.5,2.1-3.5,1c0.1-1.7,1.1-2.7,2.5-3.5
							C248.4,56.2,249,57.1,249.2,57.5z"/>
					</g>
				</g>
				<g>
					<path class="st6" d="M229.5,62.6c-0.6-0.9-1.3-1.9-1.7-2.4c-0.2-0.3,0.2-2.3,0.5-2.8c2.1-2.7,6.8-4.2,8.9-3.4
						c3.8,1.3,8.5,3,8.3,4.4c-0.5,3.2-2.8,3.2-6.7,2.1c-0.4-0.1-2.2-0.4-2.4-0.4c-1.2-0.1-3.4,5-4.9,5L229.5,62.6z"/>
					<path class="st1" d="M230.7,56.8c1.3-1.1,2.7-2.1,4.5-2.3c1.6-0.2,3.6,0.4,5.2,0.6c-1.1-0.4-2.2-0.8-3.2-1.1
						c-2.2-0.7-6.8,0.7-8.9,3.4c-0.3,0.5-0.7,2.5-0.5,2.8c0.5,0.5,1.1,1.5,1.7,2.4l2,2.4c0.4,0,0.8-0.4,1.3-0.9
						C229.5,63,228.1,58.7,230.7,56.8z"/>
					
						<linearGradient id="SVGID_6_" gradientUnits="userSpaceOnUse" x1="196.3288" y1="-4.7921" x2="209.196" y2="-4.7921" gradientTransform="matrix(0.8929 0.4502 -0.4502 0.8929 53.8569 -27.4235)">
						<stop  offset="0" style="stop-color:#E7EAF6"/>
						<stop  offset="1" style="stop-color:#828282"/>
					</linearGradient>
					<path class="st13" d="M236.1,56.2c0.7,1,0.7,1.8,1.8,2.5c2.1,1.2,5.5,1.6,6.7,0.4c0.5-2.3-6.6-4.5-9.6-4.2
						c-1.9,0.8-4.1,2.7-5.2,4.8c0,0.8,0.4,1.1,1.3,2.4c1.5,0.8,3.8-1.1,4.1-3.2C235.4,57.1,235.1,56.1,236.1,56.2z"/>
				</g>
			</g>
		</g>
		<g>
			
				<linearGradient id="SVGID_7_" gradientUnits="userSpaceOnUse" x1="-977.4984" y1="-612.9519" x2="-978.535" y2="-564.2326" gradientTransform="matrix(0.2318 0.9727 -0.9727 0.2318 -258.4694 1274.7338)">
				<stop  offset="5.357140e-03" style="stop-color:#DDDEDD"/>
				<stop  offset="0.609" style="stop-color:#D5D6D4"/>
				<stop  offset="1" style="stop-color:#CECFCC"/>
			</linearGradient>
			<path class="st14" d="M92.9,160.2c6.7,13.7,25.5-6.8,32.2,6.9c-0.6,6.6-5.6,25.7-14.8,26.7c-9.8,1-16.3,0.3-31.2,1.2
				c-0.9,9.6-4.6,22.5-10.1,21.3c-4.5-1-7.4-18.3-9-26.9c-1.5-7.8,1.5-7.5,8-10c3.8-1.4,15.7-4.8,23.3-4.4
				C91.2,168.7,89.8,161,92.9,160.2z"/>
			<path class="st3" d="M62.4,186.7c-0.5-2.5-0.5-4.1-0.1-5.2c-0.4,0.2-0.7,0.4-1,0.6c-0.2,1.1-0.2,2.6,0.2,4.8
				c1.8,8.7,4.6,25.3,8.8,29.4c0.3-0.1,0.5-0.1,0.8-0.3C67,211.8,64.1,195.3,62.4,186.7z"/>
		</g>
		<g>
			
				<linearGradient id="SVGID_8_" gradientUnits="userSpaceOnUse" x1="174.567" y1="604.8041" x2="177.9671" y2="615.8389" gradientTransform="matrix(0.9576 0.2882 -0.2882 0.9576 114.9629 -477.0736)">
				<stop  offset="5.357140e-03" style="stop-color:#DDDEDD"/>
				<stop  offset="1" style="stop-color:#CECFCC"/>
			</linearGradient>
			<path class="st15" d="M124.5,169.9c1.9-0.5,2.5-5.1,2.7-7.9c0.2-4-1.6-22.9-2.3-29.2c-16.7-0.6-20,10.5-36.7,9.9
				c1.2,4,2.2,12.9,0.8,19.2c-0.4,1.7,0,5.4,1.9,7.5C102.9,167.3,118.1,166.4,124.5,169.9z"/>
			<path class="st7" d="M89.1,161.9c-0.4,1.7,0,5.4,1.9,7.5c11.9-2.1,27.1-3.1,33.5,0.4c1.9-0.5,2.5-5.1,2.7-7.9
				C112.1,158.2,97.5,160.6,89.1,161.9z"/>
		</g>
		<g>
			<g>
				
					<linearGradient id="SVGID_9_" gradientUnits="userSpaceOnUse" x1="-58.6201" y1="-438.7613" x2="-58.6201" y2="-363.1845" gradientTransform="matrix(0.7264 0.6873 -0.6873 0.7264 -104.0751 414.4498)">
					<stop  offset="0" style="stop-color:#E7EAF6"/>
					<stop  offset="0.364" style="stop-color:#E5E8F3"/>
					<stop  offset="0.6191" style="stop-color:#DFE2EA"/>
					<stop  offset="0.8401" style="stop-color:#D6D8DB"/>
					<stop  offset="1" style="stop-color:#CBCDCA"/>
				</linearGradient>
				<path class="st16" d="M142.7,121.6c5.6-9,11.1-17.5,14.8-25.8c1.7-3.8,3-7.5,3.7-11.2c2.4-11.9-0.5-23.7-5.8-28.7
					c-5.3-5-12.5-5.1-24.3-2.6c-4.4,1-13.4,0.1-17.8,2.3c-7.4,3.7-14.9,8.9-22.7,14.4c-5.3,3.7-9.8,7.9-13.4,12.3
					c1.3,2.1,2.5,4.2,4.2,6.1c14,17,31.4,28.7,47.2,43.2c1.2,1.1,2.4,2.3,3.7,3.3C136,131.2,139.5,126.7,142.7,121.6z"/>
				<path class="st1" d="M155.4,55.9c-5.3-5-12.5-5.1-24.3-2.6c-0.8,0.2-1.7,0.3-2.7,0.4c1.8,6.7,4.9,13.7,10.5,18.1
					c6.7,5.3,16.2,10.1,22.6,11.5C163.4,71.8,160.5,60.7,155.4,55.9z"/>
				
					<linearGradient id="SVGID_10_" gradientUnits="userSpaceOnUse" x1="-58.5227" y1="-363.6666" x2="-58.5227" y2="-331.4346" gradientTransform="matrix(0.7264 0.6873 -0.6873 0.7264 -104.0751 414.4498)">
					<stop  offset="0" style="stop-color:#E7EAF6"/>
					<stop  offset="1" style="stop-color:#DCDDDB"/>
				</linearGradient>
				<path class="st17" d="M81.7,88.1c-1.7-1.9-3-4-4.2-6.1c-4.9,6.1-8.1,12.9-9.1,19.9c-1.8,12,2.7,24.8,12.7,34.2
					c9.9,9.4,21.9,12.8,32.8,10c6.7-1.7,13-5.6,18.8-11.4c-1.3-1.1-2.5-2.2-3.7-3.3C113.1,116.8,95.7,105.1,81.7,88.1z"/>
				<path class="st1" d="M82.9,89.4c-0.4-0.5-0.8-0.9-1.2-1.4c-1.7-1.9-3-4-4.2-6.1c-4.9,6.1-8.1,12.9-9.1,19.9
					c-1.1,6.9,0,14.2,3.1,20.9C77.2,112.4,81.3,101.3,82.9,89.4z"/>
				<path class="st1" d="M68.1,104.8c10.3,3.8,15.8,5.6,22.1,0.3c9.4,10.6,17.8,17.8,29.3,27.1c0,0,0,0.1,0.1,0.1
					c0.9,0.7,4.4,4.1,7.6,7.1c1.8-1.4,3.6-2.9,5.3-4.6c-1.6-1.6-3-3.1-3.5-3.5c-15.8-14.5-33.3-26.2-47.2-43.2c-1.7-1.9-3-4-4.2-6.1
					c-4.9,6.1-8.1,12.9-9.1,19.9C68.2,102.8,68.1,103.8,68.1,104.8z"/>
				<path class="st1" d="M128.6,131.6c1.2,1.1,2.4,2.3,3.7,3.3c1.4-1.5,2.9-3,4.2-4.7c-4.7-3.2-10.7-9.4-13.9-11.5
					c-5.8-5.9-25.6-22.3-27.5-24.3c-5.8-7.7,11.8-16.6,19.1-17.3c8.7-0.8,1-8.9-11.3-15.6c-4,2.6-8.1,5.4-12.4,8.4
					c-5.3,3.7-9.8,7.9-13.4,12.3c1.3,2.1,2.5,4.2,4.2,6.1C95.3,105.4,112.7,117.2,128.6,131.6z"/>
				<path class="st1" d="M102.8,61.6c-4,2.6-8.1,5.4-12.4,8.4c-2.9,2-5.6,4.2-8,6.5c3,2.7,9.9-2.5,15.4-0.8
					c7.2,2.3,14.7,1.6,16.3,1.5C122.9,76.4,115.2,68.3,102.8,61.6z"/>
			</g>
			<g>
				
					<linearGradient id="SVGID_11_" gradientUnits="userSpaceOnUse" x1="955.4918" y1="-386.2878" x2="1000.552" y2="-386.2878" gradientTransform="matrix(0.4287 0.4056 -0.6873 0.7264 -548.3592 -6.1442)">
					<stop  offset="0" style="stop-color:#E7EAF6"/>
					<stop  offset="1" style="stop-color:#828282"/>
				</linearGradient>
				<path class="st18" d="M136.2,130.5l-14.5-13.7c-1.6-1.5-0.6-4.7,2.1-7l14.6-12.7c1.9-1.6,4.4-2,5.6-0.8l11.5,10.8
					c1.2,1.2,1,3.7-0.5,5.6L143,128C140.8,130.8,137.7,132,136.2,130.5z"/>
				
					<linearGradient id="SVGID_12_" gradientUnits="userSpaceOnUse" x1="955.4918" y1="-386.2878" x2="1000.552" y2="-386.2878" gradientTransform="matrix(0.4287 0.4056 -0.6873 0.7264 -548.3592 -6.1442)">
					<stop  offset="0" style="stop-color:#CBCDCA"/>
					<stop  offset="0.1599" style="stop-color:#D6D8DB"/>
					<stop  offset="0.3809" style="stop-color:#DFE2EA"/>
					<stop  offset="0.636" style="stop-color:#E5E8F3"/>
					<stop  offset="1" style="stop-color:#E7EAF6"/>
				</linearGradient>
				<path class="st19" d="M136.2,130.5l-14.5-13.7c-1.6-1.5-0.6-4.7,2.1-7l14.6-12.7c1.9-1.6,4.4-2,5.6-0.8l11.5,10.8
					c1.2,1.2,1,3.7-0.5,5.6L143,128C140.8,130.8,137.7,132,136.2,130.5z"/>
				<path class="st1" d="M136.5,130.1l-14.2-13.4c-1.5-1.4-0.6-4.5,2-6.7l14-12.2c1.8-1.6,4.2-1.9,5.4-0.7l11.2,10.6
					c0.7,0.6,0.9,1.7,0.7,2.8c0.3-1.2,0.1-2.4-0.6-3.1l-11.3-10.7c-0.2-0.1-0.3-0.3-0.5-0.4c-1.3-0.7-3.3-0.2-4.9,1.1l-14.2,12.4
					c-2.6,2.3-3.6,5.4-2,6.8l14.2,13.4c0.4,0.4,0.9,0.6,1.4,0.6C137.2,130.6,136.8,130.5,136.5,130.1z"/>
				
					<linearGradient id="SVGID_13_" gradientUnits="userSpaceOnUse" x1="-29.354" y1="-345.1876" x2="6.2468" y2="-341.8984" gradientTransform="matrix(0.7419 0.6705 -0.6705 0.7419 -79.7352 378.418)">
					<stop  offset="0" style="stop-color:#D5D7E1"/>
					<stop  offset="0.2981" style="stop-color:#E7EAF6"/>
					<stop  offset="1" style="stop-color:#828282"/>
				</linearGradient>
				<path class="st20" d="M143,128l11.9-15.2c1.5-2,1.7-4.5,0.5-5.6l-11.5-10.8c-1.2-1.2-3.7-0.8-5.6,0.8l-14.6,12.7
					c-2.7,2.3-3.7,5.5-2.1,7l14.5,13.7C137.7,132,140.8,130.8,143,128z M136.3,130.2l-14.2-13.4c-1.5-1.4-0.5-4.6,2-6.8l14.2-12.4
					c1.8-1.6,4.3-1.9,5.5-0.8l11.2,10.6c1.2,1.1,1,3.6-0.5,5.5L143,127.8C140.9,130.5,137.9,131.7,136.3,130.2z"/>
				
					<linearGradient id="SVGID_14_" gradientUnits="userSpaceOnUse" x1="962.6421" y1="-391.6796" x2="996.2869" y2="-382.7492" gradientTransform="matrix(0.4287 0.4056 -0.6873 0.7264 -548.3592 -6.1442)">
					<stop  offset="0" style="stop-color:#E7EAF6"/>
					<stop  offset="1" style="stop-color:#828282"/>
				</linearGradient>
				<path class="st21" d="M136.2,130.5l-14.5-13.7c-1.6-1.5-0.6-4.7,2.1-7l14.6-12.7c1.9-1.6,4.4-2,5.6-0.8l11.5,10.8
					c1.2,1.2,1,3.7-0.5,5.6L143,128C140.8,130.8,137.7,132,136.2,130.5z"/>
				<g>
					
						<linearGradient id="SVGID_15_" gradientUnits="userSpaceOnUse" x1="652.6598" y1="-384.605" x2="658.4033" y2="-375.965" gradientTransform="matrix(0.4929 0.4664 -0.6873 0.7264 -454.3858 83.4867)">
						<stop  offset="0" style="stop-color:#F1F2F9"/>
						<stop  offset="0.3166" style="stop-color:#EFF0F7"/>
						<stop  offset="0.4986" style="stop-color:#E8E9EE"/>
						<stop  offset="0.6466" style="stop-color:#DCDDE0"/>
						<stop  offset="0.7755" style="stop-color:#CBCCCD"/>
						<stop  offset="0.8728" style="stop-color:#BABBB8"/>
					</linearGradient>
					<path class="st22" d="M130.2,118.4l-4.8-4.5c-0.5-0.5-0.6-1.2-0.2-1.6l2.5-2.6c0.4-0.4,1.1-0.3,1.6,0.2l4.8,4.5
						c0.5,0.5,0.6,1.2,0.2,1.6l-2.5,2.7C131.5,118.9,130.7,118.9,130.2,118.4z"/>
					<path class="st23" d="M130.2,118l-4.5-4.3c-0.5-0.5-0.6-1.1-0.3-1.5l2.2-2.5c0.3-0.4,1-0.3,1.5,0.2l4.6,4.3
						c0.5,0.5,0.6,1.2,0.3,1.5l-2.3,2.4C131.4,118.5,130.7,118.4,130.2,118z"/>
					<path class="st24" d="M130.2,118l-4.5-4.3c-0.5-0.5-0.6-1.1-0.3-1.5l2.2-2.5c0.3-0.4,1-0.3,1.5,0.2l4.6,4.3
						c0.5,0.5,0.6,1.2,0.3,1.5l-2.3,2.4C131.4,118.6,130.7,118.5,130.2,118z"/>
					<g>
						
							<ellipse transform="matrix(0.6873 -0.7264 0.7264 0.6873 -42.2574 129.8586)" class="st7" cx="129.7" cy="114" rx="1" ry="0.7"/>
						
							<ellipse transform="matrix(0.6873 -0.7264 0.7264 0.6873 -41.5386 127.8943)" class="st7" cx="127.8" cy="112.2" rx="1" ry="0.7"/>
						
							<ellipse transform="matrix(0.6873 -0.7264 0.7264 0.6873 -42.9772 131.8122)" class="st7" cx="131.6" cy="115.8" rx="1" ry="0.7"/>
					</g>
				</g>
				<g>
					
						<linearGradient id="SVGID_16_" gradientUnits="userSpaceOnUse" x1="653.2907" y1="-392.0908" x2="658.7052" y2="-383.9456" gradientTransform="matrix(0.4929 0.4664 -0.6873 0.7264 -454.3858 83.4867)">
						<stop  offset="0" style="stop-color:#F1F2F9"/>
						<stop  offset="0.3166" style="stop-color:#EFF0F7"/>
						<stop  offset="0.4986" style="stop-color:#E8E9EE"/>
						<stop  offset="0.6466" style="stop-color:#DCDDE0"/>
						<stop  offset="0.7755" style="stop-color:#CBCCCD"/>
						<stop  offset="0.8728" style="stop-color:#BABBB8"/>
					</linearGradient>
					<path class="st25" d="M135.6,112.7l-4.4-4.1c-0.5-0.4-0.5-1.1-0.2-1.5l2.5-2.6c0.4-0.4,1.1-0.4,1.5,0.1l4.3,4.1
						c0.5,0.4,0.5,1.1,0.2,1.5l-2.5,2.7C136.7,113.2,136,113.1,135.6,112.7z"/>
					<path class="st23" d="M135.6,112.3l-4.1-3.9c-0.4-0.4-0.5-1.1-0.2-1.4l2.2-2.5c0.3-0.4,1-0.3,1.4,0.1l4.2,3.9
						c0.4,0.4,0.5,1.1,0.2,1.4l-2.3,2.4C136.7,112.8,136,112.7,135.6,112.3z"/>
					<path class="st24" d="M135.6,112.4l-4.1-3.9c-0.4-0.4-0.5-1.1-0.2-1.4l2.2-2.5c0.3-0.4,1-0.3,1.4,0.1l4.2,3.9
						c0.4,0.4,0.5,1.1,0.2,1.4l-2.3,2.4C136.6,112.8,136,112.8,135.6,112.4z"/>
					<path class="st3" d="M136.2,110.6l-3-2.9c-0.3-0.3-0.5-0.7-0.4-0.8l0.7-0.9c0.1-0.1,0.5,0,0.8,0.3l3.1,2.9
						c0.3,0.3,0.5,0.7,0.4,0.8L137,111C136.9,111.1,136.5,111,136.2,110.6z"/>
				</g>
				<g>
					
						<linearGradient id="SVGID_17_" gradientUnits="userSpaceOnUse" x1="653.8625" y1="-399.6067" x2="658.9808" y2="-391.9071" gradientTransform="matrix(0.4929 0.4664 -0.6873 0.7264 -454.3858 83.4867)">
						<stop  offset="0" style="stop-color:#F1F2F9"/>
						<stop  offset="0.3166" style="stop-color:#EFF0F7"/>
						<stop  offset="0.4986" style="stop-color:#E8E9EE"/>
						<stop  offset="0.6466" style="stop-color:#DCDDE0"/>
						<stop  offset="0.7755" style="stop-color:#CBCCCD"/>
						<stop  offset="0.8728" style="stop-color:#BABBB8"/>
					</linearGradient>
					<path class="st26" d="M140.9,107l-4-3.8c-0.4-0.4-0.5-1.1-0.1-1.5l2.5-2.6c0.4-0.4,1-0.4,1.5,0l3.9,3.7
						c0.4,0.4,0.5,1.1,0.1,1.5l-2.5,2.7C142,107.4,141.3,107.4,140.9,107z"/>
					<path class="st23" d="M141,106.7l-3.7-3.5c-0.4-0.4-0.5-1-0.1-1.4l2.2-2.5c0.3-0.4,1-0.4,1.4,0l3.8,3.6c0.4,0.4,0.4,1,0.1,1.4
						l-2.3,2.4C142,107.1,141.4,107,141,106.7z"/>
					<path class="st24" d="M140.9,106.7l-3.7-3.5c-0.4-0.4-0.5-1-0.1-1.4l2.2-2.5c0.3-0.4,1-0.4,1.4,0l3.8,3.6
						c0.4,0.4,0.4,1,0.1,1.4l-2.3,2.4C141.9,107.1,141.3,107.1,140.9,106.7z"/>
					<g>
						<path class="st3" d="M140.4,104l-0.5-0.5c-0.1,0,0-0.2,0.1-0.3l0.8-0.8c0.1-0.1,0.3-0.2,0.3-0.1l0.5,0.5
							c0.1,0.1,0,0.2-0.1,0.3l-0.8,0.8C140.6,103.9,140.5,104,140.4,104z"/>
						<path class="st3" d="M138.8,102.4l-0.5-0.5c-0.1,0,0-0.2,0.1-0.3l0.8-0.8c0.1-0.1,0.3-0.2,0.3-0.1l0.5,0.5
							c0.1,0.1,0,0.2-0.1,0.3l-0.8,0.8C139,102.4,138.8,102.4,138.8,102.4z"/>
						<path class="st3" d="M142.1,105.5l-0.5-0.5c-0.1,0,0-0.2,0.1-0.3l0.8-0.8c0.1-0.1,0.3-0.2,0.3-0.1l0.5,0.5
							c0.1,0.1,0,0.2-0.1,0.3l-0.8,0.8C142.3,105.5,142.2,105.6,142.1,105.5z"/>
					</g>
				</g>
				<g>
					
						<linearGradient id="SVGID_18_" gradientUnits="userSpaceOnUse" x1="1159.7133" y1="-325.5975" x2="1178.7751" y2="-321.8248" gradientTransform="matrix(0.4258 0.3697 -0.6555 0.7551 -566.8111 -71.6487)">
						<stop  offset="0" style="stop-color:#F1F2F9"/>
						<stop  offset="0.3166" style="stop-color:#EFF0F7"/>
						<stop  offset="0.4986" style="stop-color:#E8E9EE"/>
						<stop  offset="0.6466" style="stop-color:#DCDDE0"/>
						<stop  offset="0.7755" style="stop-color:#CBCCCD"/>
						<stop  offset="0.8728" style="stop-color:#BABBB8"/>
					</linearGradient>
					<path class="st27" d="M137.6,129.5l-6.2-5.4c-0.7-0.6,0.7-3,2.9-5.4l12.1-12.7c1.6-1.6,3.2-2.5,3.7-2.1l4.9,4.3
						c0.5,0.5-0.1,2.2-1.5,4l-10.9,13.7C140.6,128.4,138.3,130,137.6,129.5z"/>
					<path class="st23" d="M137.7,128.8l-5.6-4.9c-0.6-0.5,0.7-2.8,2.8-5.1l11.5-12.1c1.5-1.6,3-2.5,3.5-2l4.5,3.9
						c0.5,0.4-0.2,2.1-1.5,3.8l-10.4,13C140.4,127.7,138.3,129.3,137.7,128.8z"/>
					<path class="st24" d="M137.6,129l-5.6-4.9c-0.6-0.5,0.7-2.8,2.8-5.1l11.5-12.1c1.5-1.6,3-2.5,3.5-2l4.5,3.9
						c0.5,0.4-0.2,2.1-1.5,3.8l-10.4,13C140.3,127.9,138.2,129.5,137.6,129z"/>
					
						<linearGradient id="SVGID_19_" gradientUnits="userSpaceOnUse" x1="1163.1012" y1="-325.8766" x2="1179.751" y2="-319.3105" gradientTransform="matrix(0.4258 0.3697 -0.6555 0.7551 -566.8111 -71.6487)">
						<stop  offset="0" style="stop-color:#E7EAF6"/>
						<stop  offset="1" style="stop-color:#828282"/>
					</linearGradient>
					<path class="st28" d="M137.6,129l-5.6-4.9c-0.6-0.5,0.7-2.8,2.8-5.1l11.5-12.1c1.5-1.6,3-2.5,3.5-2l4.5,3.9
						c0.5,0.4-0.2,2.1-1.5,3.8l-10.4,13C140.3,127.9,138.2,129.5,137.6,129z"/>
					<g>
						
							<ellipse transform="matrix(0.6556 -0.7551 0.7551 0.6556 -43.6663 146.9548)" class="st3" cx="139.3" cy="121.3" rx="4.7" ry="2.7"/>
						<path class="st1" d="M137.2,120.6c1.7-2,4-2.8,5.1-1.8c0.3,0.3,0.5,0.6,0.6,1.1c0.1-0.9,0-1.6-0.5-2.1c-1.1-1-3.4-0.1-5.1,1.8
							c-1.2,1.4-1.8,3.1-1.6,4.2C135.8,122.8,136.3,121.7,137.2,120.6z"/>
						<path class="st3" d="M144.2,117.5l-2-1.8c-0.4-0.3-0.4-0.9-0.1-1.2l0.7-0.8c0.3-0.4,0.9-0.4,1.2-0.1l2,1.8
							c0.4,0.3,0.4,0.9,0.1,1.2l-0.7,0.8C145.1,117.8,144.6,117.8,144.2,117.5z"/>
						<path class="st3" d="M146.9,114.4l-2-1.8c-0.4-0.3-0.4-0.9-0.1-1.2l0.7-0.8c0.3-0.4,0.9-0.4,1.2-0.1l2,1.8
							c0.4,0.3,0.4,0.9,0.1,1.2l-0.7,0.8C147.8,114.7,147.3,114.7,146.9,114.4z"/>
						<path class="st3" d="M149.7,111.2l-2-1.8c-0.4-0.3-0.4-0.9-0.1-1.2l0.7-0.8c0.3-0.4,0.9-0.4,1.2-0.1l2,1.8
							c0.4,0.3,0.4,0.9,0.1,1.2l-0.7,0.8C150.6,111.5,150,111.5,149.7,111.2z"/>
						<g>
							<path class="st23" d="M145.6,117.3l0.3-0.4c0.3-0.3,0.4-0.7,0.4-1c0,0.3-0.2,0.6-0.4,0.9l-0.3,0.4c-0.4,0.5-1,0.7-1.3,0.5
								l-2.3-2c-0.1-0.1-0.1-0.2-0.1-0.3c0,0.2,0,0.3,0.1,0.4l2.3,2C144.6,118,145.2,117.8,145.6,117.3z"/>
							<path class="st23" d="M151.4,110.5l-0.3,0.4c-0.4,0.5-1,0.7-1.3,0.5l-2.3-2c-0.1-0.1-0.1-0.2-0.1-0.3c0,0.2,0,0.3,0.1,0.4
								l2.3,2c0.3,0.2,0.8,0,1.3-0.5l0.3-0.4c0.3-0.3,0.4-0.7,0.4-1C151.8,109.9,151.7,110.3,151.4,110.5z"/>
							<path class="st23" d="M148.6,113.8c0.3-0.3,0.4-0.7,0.4-1c0,0.3-0.2,0.6-0.4,0.9l-0.3,0.4c-0.4,0.5-1,0.7-1.3,0.5l-2.3-2
								c-0.1-0.1-0.1-0.2-0.1-0.3c0,0.2,0,0.3,0.1,0.4l2.3,2c0.3,0.2,0.8,0,1.3-0.5L148.6,113.8z"/>
							<path class="st23" d="M143,119.4c0,1.1-0.6,2.5-1.7,3.7c-1.7,2-4,2.8-5.1,1.8c-0.4-0.4-0.6-0.9-0.6-1.5
								c0,0.7,0.2,1.3,0.6,1.6c1.1,1,3.4,0.1,5.1-1.8C142.4,121.9,142.9,120.5,143,119.4z"/>
						</g>
						<g>
							<path class="st1" d="M147.4,109.2c0.1-0.1,0.1-0.2,0.2-0.3l0.3-0.4c0.4-0.5,1-0.7,1.3-0.5l2.3,2c0,0,0.1,0.1,0.1,0.2
								c0.3-0.4,0.3-0.8,0.1-1l-2.3-2c-0.3-0.2-0.8,0-1.3,0.5l-0.3,0.4C147.4,108.4,147.3,108.9,147.4,109.2z"/>
							<path class="st1" d="M142.1,115.2l0.3-0.4c0.4-0.5,1-0.7,1.3-0.5l2.3,2c0,0,0.1,0.1,0.1,0.2c0.3-0.4,0.3-0.8,0.1-1l-2.3-2
								c-0.3-0.2-0.8,0-1.3,0.5l-0.3,0.4c-0.3,0.4-0.5,0.9-0.4,1.1C142,115.4,142,115.3,142.1,115.2z"/>
							<path class="st1" d="M144.6,112.4c0.1-0.1,0.1-0.2,0.2-0.3l0.3-0.4c0.4-0.5,1-0.7,1.3-0.5l2.3,2c0,0,0.1,0.1,0.1,0.2
								c0.3-0.4,0.3-0.8,0.1-1l-2.3-2c-0.3-0.2-0.8,0-1.3,0.5l-0.3,0.4C144.6,111.6,144.5,112.1,144.6,112.4z"/>
						</g>
					</g>
				</g>
			</g>
			<path class="st3" d="M131.7,132.9c-4.4-5.1-4.6-5.5-15.7-16.1c-11.1-10.6-29.8-28-35.9-32.8c-1-0.8-1.9-1.5-2.6-2
				c-0.1,0.1-0.2,0.3-0.3,0.4c0,0,0,0,0,0.1c-0.6,0.8-1.2,1.5-1.7,2.3c1.4,2.3,3.4,4.9,6.7,8.7c5.1,5.8,21.9,22.7,27.9,28.3
				c5.9,5.6,18.2,13.8,20.5,15c0.6-0.5,1.2-1.1,1.8-1.7c0,0,0.1-0.1,0.1-0.1c0.1-0.1,0.2-0.2,0.3-0.3c0.1-0.1,0.2-0.2,0.2-0.3
				C132.5,133.9,132.1,133.4,131.7,132.9z"/>
		</g>
		<g>
			<g>
				<path class="st4" d="M78.3,97c1.4,0.5,2.8,1,4.2,1.5c0.6,0.2,1.2,0.4,1.9,0.7c0.3,0.1,0.6,0.2,0.9,0.3c0,0,0,0,0,0
					c0.1,0,0.1,0,0.2,0.1c0.3,0.1,0.6,0.2,0.9,0.3c0.5,0.2,1.1,0.4,1.6,0.5c0.3-4,0.4-7.8,0.6-11.2c-0.2-0.5-0.2-2.1,1-2.4
					c2.5-0.5,11-1.1,15.1-2.5c-0.9-5.4-1.2-24.2-7.6-22.6c-13.4,3.4-22.4,7.3-26,12c-3,3.9-2.8,12.5-2.3,20
					C72,94.8,75.1,95.9,78.3,97z"/>
				
					<linearGradient id="SVGID_20_" gradientUnits="userSpaceOnUse" x1="92.8349" y1="88.5433" x2="71.6083" y2="78.54" gradientTransform="matrix(0.8929 0.4502 -0.4502 0.8929 53.8569 -27.4235)">
					<stop  offset="0" style="stop-color:#E7EAF6"/>
					<stop  offset="1" style="stop-color:#828282"/>
				</linearGradient>
				<path class="st29" d="M91.4,74.2c-4.5-4-11.3-1-13.2,2.8c-4.6,7.1,6.2,7.6,12.1,9.7c1.5-0.2,4.1-0.5,6.8-0.9
					C97.2,80.9,95.1,77,91.4,74.2z"/>
				<path class="st1" d="M88.8,69.9c6,2.5,6.7,10.1,9.6,15.7c2.4-0.4,4.7-0.8,6.3-1.3c-0.9-5.4-1.2-24.2-7.6-22.6
					c-13.4,3.4-22.4,7.3-26,12c-3,3.9-2.8,12.5-2.3,20c3.1,1.1,6.3,2.2,9.4,3.3c1.4,0.5,2.8,1,4.2,1.5c0.6,0.2,1.2,0.4,1.9,0.7
					c0.3,0.1,0.6,0.2,0.9,0.3c0,0,0,0,0,0c0.1,0,0.1,0,0.2,0.1c0.3,0.1,0.6,0.2,0.9,0.3c0.5,0.2,1.1,0.4,1.6,0.5
					c0.3-4,0.4-7.8,0.6-11.2c-0.1-0.4-0.2-1.3,0.2-1.9c-5.3-1.4-10.9,0.2-14.6-4C68.7,76.9,78.1,69.9,88.8,69.9z"/>
				<g>
					<path class="st5" d="M68.9,81.2c0,0.1,0,0.2,0,0.4c6.5,3.5,13.1,6.5,19.8,9c0-0.1,0-0.2,0-0.4C81.9,87.7,75.3,84.7,68.9,81.2z"
						/>
					<path class="st5" d="M88.6,88.2c-6.4-3.8-12.5-8.1-18.4-12.8c0,0.1-0.1,0.2-0.1,0.3c5.9,4.7,12.1,9,18.5,12.8
						C88.6,88.4,88.6,88.3,88.6,88.2z"/>
					<path class="st5" d="M74.2,70.8c4.8,5.7,9.9,11,15.4,16c0.1,0,0.3,0,0.4-0.1c-5.6-5-10.8-10.4-15.6-16.1
						C74.4,70.7,74.3,70.7,74.2,70.8z"/>
					<path class="st5" d="M79,68c-0.1,0.1-0.2,0.1-0.3,0.2c3.8,6.4,8.2,12.5,13.1,18.4c0.1,0,0.3,0,0.4-0.1
						C87.3,80.6,82.9,74.4,79,68z"/>
				</g>
				<path class="st1" d="M78.3,97c1.4,0.5,2.8,1,4.2,1.5c0.6,0.2,1.2,0.4,1.9,0.7c0.3,0.1,0.6,0.2,0.9,0.3c0,0,0,0,0,0
					c0.1,0,0.1,0,0.2,0.1c0.3,0.1,0.6,0.2,0.9,0.3c0.5,0.2,1.1,0.4,1.6,0.5c0.1-2.1,0.2-4.2,0.4-6.1c-1.9-1.3-4.1-1.6-6.1-2.3
					c-3.9-1.3-6.9-1.2-10.8-0.8c-1.5-0.1-2.3-0.8-2.9-1.8c0,1.4,0.1,2.9,0.2,4.3C72,94.8,75.1,95.9,78.3,97z"/>
			</g>
			<g>
				<path class="st30" d="M99.9,86.9c1.1-0.6,5-1.3,6.3-1c11.8,2.6,26.3-4.4,30-12.2c3.5-7.4-5.3-25.4-11-27.2
					c-8.4-2.6-29.5,5-34.1,13.3c-2.7,2-4,3-4.6,3.7C91,65.8,99.5,82.1,99.9,86.9z"/>
				<path class="st1" d="M127.2,47.6c0.7,8.1,4.4,15.8,9.8,22.2C137.2,62.4,131.8,51.4,127.2,47.6z"/>
				<path class="st7" d="M91.1,59.8c-2.7,2-4,3-4.6,3.7c4.4,2.3,13,18.6,13.4,23.4c1.1-0.6,5-1.3,6.3-1
					C102.9,75.3,96.9,65.8,91.1,59.8z"/>
				
					<linearGradient id="SVGID_21_" gradientUnits="userSpaceOnUse" x1="116.1678" y1="62.7092" x2="80.6002" y2="44.9253" gradientTransform="matrix(0.8929 0.4502 -0.4502 0.8929 53.8569 -27.4235)">
					<stop  offset="0" style="stop-color:#E7EAF6"/>
					<stop  offset="1" style="stop-color:#828282"/>
				</linearGradient>
				<path class="st31" d="M116.4,71c3.9-1,11.5-2.4,11.6-5.4c0.7-7.2-6.3-12.6-5.6-19.6c-8.4-0.5-23,4.7-29.2,11.1
					c0.1,0.2,0.1,0.3,0.2,0.5C99.3,67,104.7,73.9,116.4,71z"/>
				<g>
					<path class="st3" d="M111.8,46.6c4.5,4.1,8.1,10.7,9.2,14.9c-1,1.4-3.8,3.1-5.6,3.2c-1.6-4.3-5.7-13.2-9.1-15.4
						C107.6,47.7,110,46.8,111.8,46.6z"/>
					<path class="st3" d="M100.9,51.7c2.6,1.8,11.5,11.9,12.5,19.8c-0.3,1.4-3.7,2.5-5.4,2.3c-1.2-6.2-10-16.9-12-19.4
						C96.4,53,98.6,51.3,100.9,51.7z"/>
				</g>
			</g>
		</g>
		<g>
			<g>
				
					<linearGradient id="SVGID_22_" gradientUnits="userSpaceOnUse" x1="-114.0387" y1="-453.6827" x2="-60.9757" y2="-453.6827" gradientTransform="matrix(0.7112 0.7029 -0.7029 0.7112 -111.8885 449.5514)">
					<stop  offset="0" style="stop-color:#E7EAF6"/>
					<stop  offset="0.364" style="stop-color:#E5E8F3"/>
					<stop  offset="0.6191" style="stop-color:#DFE2EA"/>
					<stop  offset="0.8401" style="stop-color:#D6D8DB"/>
					<stop  offset="1" style="stop-color:#CBCDCA"/>
				</linearGradient>
				<path class="st32" d="M165.4,81.2c0-0.1-2-6.5-2-6.5c-6.5-1.4-12.4-4.7-17-9.3c-0.3-0.3-1.5-1.5-1.8-1.8
					c-4.6-4.6-8-10.5-9.4-17.1c0,0-6.4-2-6.5-2c-1.6-0.5-1.3,2-0.9,4.1c1.7,7.9,5.7,15.1,11.3,20.6c0.3,0.3,1.5,1.5,1.7,1.7
					c5.5,5.6,12.7,9.5,20.5,11.2C163.4,82.6,166.1,83.3,165.4,81.2z"/>
				<path class="st1" d="M163.4,74.7c-6.5-1.4-12.4-4.7-17-9.3c-0.3-0.3-1.5-1.5-1.8-1.8c-4.6-4.6-8-10.5-9.4-17.1
					c0,0-0.6-0.2-1.5-0.5c0.1,0.4,0.1,0.9,0.2,1.3c1.7,7.9,5.7,15.1,11.3,20.6c0.3,0.3,1.5,1.5,1.7,1.7c5,5,11.2,8.7,18.1,10.6
					C164.6,78.5,163.4,74.7,163.4,74.7z"/>
				<path class="st1" d="M162,81.6c-7.8-1.7-15-5.6-20.5-11.2c-0.3-0.3-1.5-1.5-1.7-1.7c-5.6-5.5-9.6-12.7-11.3-20.6
					c-0.3-1.3-0.5-2.8-0.2-3.5c-1,0.2-0.7,2.3-0.3,4.1c1.7,7.9,5.7,15.1,11.3,20.6c0.3,0.3,1.5,1.5,1.7,1.7
					c5.5,5.6,12.7,9.5,20.5,11.2c1.7,0.4,3.9,0.9,4.1-0.2C164.7,82.2,163.2,81.9,162,81.6z"/>
				<g>
					<path class="st3" d="M133.6,52.6c-0.4,0.4-0.9,0.4-1.3,0c-0.3-0.3-0.3-0.9,0-1.3c0.4-0.4,0.9-0.4,1.3,0
						C133.9,51.6,133.9,52.2,133.6,52.6z"/>
					<path class="st3" d="M137.6,60.9c-0.4,0.4-0.9,0.4-1.3,0c-0.3-0.3-0.3-0.9,0-1.3c0.4-0.4,0.9-0.4,1.3,0
						C138,59.9,138,60.5,137.6,60.9z"/>
					<path class="st3" d="M143.4,68c-0.4,0.4-0.9,0.4-1.3,0c-0.3-0.3-0.3-0.9,0-1.3c0.4-0.4,0.9-0.4,1.3,0
						C143.7,67.1,143.7,67.6,143.4,68z"/>
					<path class="st3" d="M150.4,73.7c-0.4,0.4-0.9,0.4-1.3,0c-0.3-0.3-0.3-0.9,0-1.3c0.4-0.4,0.9-0.4,1.3,0
						C150.8,72.7,150.8,73.3,150.4,73.7z"/>
					<path class="st3" d="M158.7,77.7c-0.4,0.4-0.9,0.4-1.3,0c-0.3-0.3-0.3-0.9,0-1.3s0.9-0.4,1.3,0
						C159.1,76.8,159.1,77.4,158.7,77.7z"/>
				</g>
			</g>
			<g>
				<g>
					<path class="st33" d="M199.9,60.9c-4.6,4-16.2,8.6-21.9,9.8c-2.8,0.6-10.9,2.4-13.4,2.9c-1.4,2.9-10.4,0.1-18-7.1
						c-6.2-6-12.6-14.6-13.6-21.3c-0.1-2.9-0.5-3.9,2.8-8.1c0.1-3.1-0.8-13.2,10.3-26.2c10.2-12,27.2-14.1,40.4-6.3
						C211.3,19,217.6,46.6,211,52.4C204.1,58.4,206.3,55.4,199.9,60.9z"/>
					<path class="st1" d="M159.3,61.9c-3.5-12.9-9.6-26.5-23.5-27.9c-0.1,1-0.1,2.1-0.1,3.1c-3.3,4.2-2.9,5.2-2.8,8.1
						c1.1,6.7,7.4,15.3,13.6,21.3c7.6,7.2,16.6,10,18,7.1c0.3-0.1,0.7-0.1,1.2-0.2C162.8,70.4,160.6,66.7,159.3,61.9z"/>
				</g>
				<g>
					<path class="st34" d="M210.3,50.6c0-6.9-9.1-17.4-19.9-23.2c-10.5-3.2-20.4-4.2-34.4,3.2c-9.6,5.1-14.2,11.1-15.3,17.8
						c0.4,9.5,7.1,15.7,13.8,20.9c6.6,5.4,15.2,7.5,24.4,5.8c6.2-2.5,7.6-10.3,15.2-13.6C204.3,57.1,209.2,54.8,210.3,50.6z"/>
					<path class="st1" d="M173.7,42c8.2-5.5,19.1-8.3,28.9-5.3c-3.4-3.5-7.7-6.8-12.3-9.3c-10.5-3.2-20.4-4.2-34.4,3.2
						c-9.6,5.1-14.2,11.1-15.3,17.8c0.4,9.5,7.1,15.7,13.8,20.9c6.6,5.4,15.2,7.5,24.4,5.8c0.3-0.1,0.5-0.2,0.8-0.4
						c-3.4-3.2-6.3-7-9.2-10.6C165.5,57.4,166.2,46.9,173.7,42z"/>
					
						<radialGradient id="SVGID_23_" cx="7.701" cy="-260.1884" r="46.0307" gradientTransform="matrix(0.795 0.6067 -0.6067 0.795 -14.5921 260.4513)" gradientUnits="userSpaceOnUse">
						<stop  offset="0" style="stop-color:#5C7F80"/>
						<stop  offset="1" style="stop-color:#404747"/>
					</radialGradient>
					<path class="st35" d="M206.6,44.8c-4.7-7.9-12-16.2-26.8-17.8c-9.5-1.1-23.7,3.6-35.8,15.7c-0.9,2.8-1.6,1.4-1.7,4.9
						c-0.5,9.9,4.7,17.8,11.6,23.2c3.1,2.5,7.2,6.6,12.9,7.9c22.7,5.1,39.9-11.3,41.1-23.1C208.2,50.9,207.9,47.1,206.6,44.8z"/>
					
						<linearGradient id="SVGID_24_" gradientUnits="userSpaceOnUse" x1="-26.005" y1="-348.0058" x2="26.3654" y2="-348.0058" gradientTransform="matrix(0.7695 0.6387 -0.6387 0.7695 -46.5259 319.8063)">
						<stop  offset="0" style="stop-color:#E7EAF6"/>
						<stop  offset="1" style="stop-color:#828282"/>
					</linearGradient>
					<path class="st36" d="M169.2,75.4c16.5,4,33.4-6.7,34.5-22.5c0.6-8.5-7.6-20.3-22.3-22c-8.7-1-19,3.2-31.1,11.2
						c0.2,2.1,1.3,4.7,0.7,7.3c-0.8,3.6-4.3,4.1-1.3,8.9C156.4,69,162.2,73.6,169.2,75.4z"/>
					<path class="st1" d="M206.6,44.8c-4.7-7.9-12-16.2-26.8-17.8c-9.5-1.1-23.7,3.6-35.8,15.7c-0.9,2.8-1.6,1.4-1.7,4.9
						c-0.5,9.9,4.7,17.8,11.6,23.2c2.7,2.2,6.1,5.6,10.7,7.3c-8.7-6.7-19.1-20.3-20-25.9c5.7-3.5,4.9-8.1,4-11.9
						c11.3-9.3,23.6-12.6,32.1-11c14,2.6,20.8,9.5,25.1,18.3c0.8,1.6,1.7,3.9,2.1,6.8C208.1,50.2,207.8,46.9,206.6,44.8z"/>
					<path class="st33" d="M158.8,74.9c-10.8-9.9-16.5-19-16.6-27.9c0,0.2-6.4,1.9-6.4,2.1C135.4,59,154.1,73.7,158.8,74.9z"/>
					<path class="st1" d="M139.1,54.6c-0.6-1.2,2.5-1.8,3.9-2c-0.5-1.9-0.7-3.7-0.7-5.7c0,0.2-6.4,1.9-6.4,2.1
						c-0.5,9.9,18.2,24.6,23,25.8c-0.8-0.8-2.5-2.4-3.3-3.2C148.4,68.4,142.3,61.5,139.1,54.6z"/>
					<g>
						<defs>
							<path id="SVGID_25_" d="M169.2,75.4c16.5,4,33.4-6.7,34.5-22.5c0.6-8.5-7.6-20.3-22.3-22c-8.7-1-19,3.2-31.1,11.2
								c0.2,2.1,1.3,4.7,0.7,7.3c-0.8,3.6-4.3,4.1-1.3,8.9C156.4,69,162.2,73.6,169.2,75.4z"/>
						</defs>
						<clipPath id="SVGID_26_">
							<use xlink:href="#SVGID_25_"  style="overflow:visible;"/>
						</clipPath>
						<g class="st37">
							<g>
								<path class="st38" d="M130.7,66.6l-0.5-0.9c-1.1-2.1-0.2-4.6,1.8-5.7l16.4-8.4c2.1-1.1,4.6-0.2,5.7,1.8l0.5,0.9
									c1.1,2.1,0.2,4.6-1.8,5.7l-16.4,8.4C134.4,69.5,131.8,68.7,130.7,66.6z"/>
							</g>
							<g>
								<g>
									
										<ellipse transform="matrix(0.8892 -0.4575 0.4575 0.8892 -2.9273 93.9236)" class="st39" cx="192.4" cy="53" rx="6.8" ry="6.8"/>
									
										<ellipse transform="matrix(0.8892 -0.4575 0.4575 0.8892 -6.3518 89.9623)" class="st39" cx="182.6" cy="58.1" rx="7.1" ry="7.1"/>
								</g>
								<g>
									<path class="st40" d="M151.5,69.6l-11.4-22.4c-2-3.9-0.4-8.7,3.4-10.6l32.1-16.4c2.9-1.5,6.6-0.3,8.1,2.6l13.2,25.8
										c1.5,2.9,0.3,6.6-2.6,8.1l-32.1,16.4C158.3,75,153.5,73.5,151.5,69.6z"/>
								</g>
								<g>
									<defs>
										<path id="SVGID_27_" d="M151.1,68.8l-10.7-20.8c-2.2-4.3-1-9.4,2.7-11.2l32.7-16.7c2.8-1.4,6.4,0.1,8.1,3.3L196.5,48
											c1.7,3.3,0.8,7.1-2,8.5l-32.7,16.7C158.1,75.1,153.3,73.1,151.1,68.8z"/>
									</defs>
									<clipPath id="SVGID_28_">
										<use xlink:href="#SVGID_27_"  style="overflow:visible;"/>
									</clipPath>
									<g class="st41">
										<g>
											
												<rect x="162.2" y="26.5" transform="matrix(0.4581 0.8889 -0.8889 0.4581 134.199 -141.0683)" class="st38" width="41.1" height="26"/>
										</g>
									</g>
								</g>
								<g>
									
										<ellipse transform="matrix(0.8892 -0.4575 0.4575 0.8892 11.837 89.6165)" class="st39" cx="190.9" cy="20.4" rx="6.8" ry="6.8"/>
									
										<ellipse transform="matrix(0.8892 -0.4575 0.4575 0.8892 8.8932 92.3293)" class="st39" cx="195.1" cy="27.8" rx="6.8" ry="6.8"/>
									
										<ellipse transform="matrix(0.8892 -0.4575 0.4575 0.8892 5.7669 94.9387)" class="st39" cx="198.9" cy="35.6" rx="6.9" ry="6.9"/>
									
										<ellipse transform="matrix(0.8892 -0.4575 0.4575 0.8892 2.7563 97.4666)" class="st39" cx="202.6" cy="43" rx="6.8" ry="6.8"/>
								</g>
								
									<ellipse transform="matrix(0.8892 -0.4575 0.4575 0.8892 2.5631 91.3229)" class="st39" cx="189.8" cy="40.4" rx="5.8" ry="5.8"/>
								
									<ellipse transform="matrix(0.8892 -0.4575 0.4575 0.8892 1.113824e-02 93.529)" class="st39" cx="193.1" cy="46.7" rx="5.8" ry="5.8"/>
								
									<ellipse transform="matrix(0.8892 -0.4575 0.4575 0.8892 4.9709 90.1423)" class="st39" cx="188.6" cy="34.8" rx="4.6" ry="4.6"/>
								
									<ellipse transform="matrix(0.8892 -0.4575 0.4575 0.8892 8.16 88.0285)" class="st39" cx="185.8" cy="27.2" rx="4.6" ry="4.6"/>
								
									<ellipse transform="matrix(0.8892 -0.4575 0.4575 0.8892 -1.6087 95.8302)" class="st39" cx="197" cy="51.2" rx="4.6" ry="4.6"/>
								
									<ellipse transform="matrix(0.8892 -0.4575 0.4575 0.8892 12.0936 85.9047)" class="st39" cx="183.4" cy="18" rx="6.8" ry="6.8"/>
								
									<ellipse transform="matrix(0.8892 -0.4575 0.4575 0.8892 -0.9175 96.7396)" class="st39" cx="199.3" cy="50.3" rx="6.8" ry="6.8"/>
								<g>
									<g>
										<g>
											<path class="st42" d="M149,61.9c1,0.1,1.7,0.4,2.5,0.8c0.7,0.4,1.4,0.9,2,1.7c-1-0.1-1.7-0.4-2.5-0.8
												C150.2,63.2,149.5,62.7,149,61.9z"/>
										</g>
									</g>
									<g>
										<path class="st42" d="M152,62c0.2,0.6,0,1.1-0.2,1.5c-0.2,0.4-0.5,0.8-1.1,1c-0.2-0.6,0-1.1,0.2-1.5
											C151.1,62.6,151.4,62.3,152,62z"/>
									</g>
								</g>
								<path class="st39" d="M148.8,37.8l-3.1-6.1c-0.6-1.1-0.1-2.6,1-3.2l27.9-14.3c1.1-0.6,2.6-0.1,3.2,1l3.1,6.1
									c0.6,1.1,0.1,2.6-1,3.2L152,38.8C150.8,39.4,149.4,39,148.8,37.8z"/>
								<g>
									
										<ellipse transform="matrix(0.8892 -0.4575 0.4575 0.8892 11.2745 81.6464)" class="st39" cx="174.2" cy="17.5" rx="6.8" ry="6.8"/>
									
										<ellipse transform="matrix(0.8892 -0.4575 0.4575 0.8892 7.8501 77.6851)" class="st39" cx="164.3" cy="22.6" rx="7.1" ry="7.1"/>
								</g>
								
									<rect x="154.8" y="27" transform="matrix(0.4575 0.8892 -0.8892 0.4575 114.9981 -122.8417)" class="st38" width="6.7" height="11.7"/>
								<g>
									
										<ellipse transform="matrix(0.8892 -0.4575 0.4575 0.8892 9.6365 83.0625)" class="st39" cx="176.3" cy="21.6" rx="6.8" ry="6.8"/>
									
										<ellipse transform="matrix(0.8892 -0.4575 0.4575 0.8892 6.2121 79.1012)" class="st39" cx="166.4" cy="26.7" rx="7.1" ry="7.1"/>
								</g>
							</g>
							<path class="st40" d="M174.6,40.4c-2-3.9-6.9-5.4-10.9-3.3l-5.7,2.9l7.3,14.1l5.7-2.9C175,49.1,176.7,44.3,174.6,40.4z"/>
							<path class="st40" d="M183,56.6c-1.3-2.5-5.6-2.9-9.6-0.8l-5.7,2.9l4.7,9.1l5.7-2.9C182.1,62.8,184.3,59.1,183,56.6z"/>
							<g>
								<g>
									<g>
										<path class="st23" d="M170.7,47.8c-3.1,3.9-9,1.9-8.9-3.1c0-0.9,0.3-1.7,0.9-2.4c3.1-3.9,9-1.9,8.9,3.1
											C171.6,46.2,171.3,47.1,170.7,47.8z"/>
									</g>
								</g>
								<g>
									<g>
										<path class="st43" d="M170.7,48c-1.7,3.2-6.2,2.5-6.9-1.1c-0.1-0.7,0-1.4,0.3-2c1.7-3.2,6.2-2.5,6.9,1.1
											C171.1,46.7,171,47.4,170.7,48z"/>
									</g>
								</g>
								<g>
									<g>
										<path d="M161.9,44.8c0,0,0-0.1,0-0.2c0-0.1-0.1-0.3-0.1-0.5c0-0.2,0-0.5,0-0.8c0-0.3,0.1-0.7,0.3-1
											c0.2-0.4,0.4-0.8,0.6-1.1c0.3-0.4,0.7-0.7,1.1-1c0.4-0.3,0.9-0.5,1.5-0.7c0.5-0.2,1.1-0.2,1.7-0.2c0.3,0,0.5,0,0.8,0.1
											c0.3,0,0.6,0.1,0.8,0.2c0.5,0.2,1,0.5,1.4,0.8c0.4,0.3,0.7,0.7,1,1.1c0.3,0.4,0.4,0.8,0.6,1.2c0.1,0.4,0.2,0.7,0.2,1.1
											c0,0.3,0,0.6,0,0.8c0,0.2-0.1,0.4-0.1,0.5c0,0.1-0.1,0.2-0.1,0.2s0-0.1-0.1-0.2c0-0.1-0.1-0.3-0.2-0.5
											c-0.1-0.2-0.2-0.4-0.3-0.7c-0.1-0.2-0.3-0.5-0.5-0.8c-0.2-0.3-0.4-0.5-0.7-0.7c-0.3-0.2-0.6-0.4-0.9-0.6
											c-0.3-0.2-0.7-0.3-1-0.4c-0.2,0-0.4-0.1-0.5-0.1c-0.1,0-0.5,0-0.6-0.1c-0.8,0-1.5,0.1-2.2,0.5c-0.7,0.3-1.2,0.8-1.7,1.3
											c-0.2,0.3-0.4,0.5-0.5,0.7c-0.1,0.2-0.3,0.5-0.3,0.6c-0.1,0.2-0.1,0.4-0.2,0.5C161.9,44.8,161.9,44.8,161.9,44.8z"/>
									</g>
								</g>
							</g>
							<g>
								<g>
									<g>
										<path class="st23" d="M174.9,55.8c-4.9,0.3-6.8,6.1-2.8,8.6c0.7,0.5,1.6,0.7,2.4,0.6c4.9-0.3,6.8-6.1,2.8-8.6
											C176.6,56,175.7,55.7,174.9,55.8z"/>
									</g>
								</g>
								<g>
									<g>
										<path d="M171.9,64.3c0,0,0,0,0.1,0.1c0.1,0.1,0.2,0.2,0.3,0.3c0.2,0.1,0.4,0.3,0.7,0.4c0.3,0.1,0.6,0.3,1,0.3
											c0.4,0.1,0.8,0.1,1.3,0.1c0.5,0,1-0.1,1.4-0.3c0.5-0.2,1-0.4,1.4-0.8c0.4-0.3,0.8-0.7,1.2-1.2c0.2-0.3,0.3-0.4,0.4-0.7
											c0.1-0.3,0.2-0.5,0.3-0.8c0.2-0.5,0.2-1,0.2-1.5c0-0.5-0.1-1-0.3-1.4c-0.1-0.4-0.4-0.8-0.6-1.1c-0.2-0.3-0.5-0.5-0.7-0.7
											c-0.2-0.2-0.5-0.3-0.7-0.4c-0.2-0.1-0.4-0.1-0.5-0.2c-0.1,0-0.2-0.1-0.2-0.1s0,0,0.1,0.1c0.1,0.1,0.2,0.2,0.3,0.4
											c0.1,0.2,0.2,0.4,0.3,0.6c0.1,0.2,0.2,0.5,0.3,0.8c0.1,0.3,0.2,0.6,0.2,0.9c0,0.3,0,0.7,0,1c0,0.4-0.1,0.7-0.3,1
											c-0.1,0.2-0.1,0.3-0.2,0.5c0,0.1-0.2,0.4-0.3,0.5c-0.4,0.6-1,1.1-1.7,1.5c-0.7,0.4-1.4,0.5-2,0.6c-0.3,0-0.6,0-0.9,0
											c-0.3,0-0.5,0-0.7-0.1c-0.2,0-0.4-0.1-0.5-0.1C172,64.3,171.9,64.3,171.9,64.3z"/>
									</g>
								</g>
								<g>
									<g>
										<path class="st43" d="M178.3,62.8c-1.8,3.1-6.2,2.5-6.7-0.9c-0.1-0.7,0-1.3,0.4-1.9c1.8-3.1,6.2-2.5,6.7,0.9
											C178.7,61.5,178.6,62.2,178.3,62.8z"/>
									</g>
								</g>
							</g>
							<path class="st44" d="M156.4,51c0,0-1.6,9,7.1,13.9"/>
							<path class="st45" d="M174.8,47c0,0,3.5-7.7-5.6-10.8"/>
							<g>
								
									<rect x="167.3" y="47.9" transform="matrix(0.4575 0.8892 -0.8892 0.4575 140.8122 -122.0247)" class="st38" width="6.3" height="13"/>
								
									<ellipse transform="matrix(0.8892 -0.4575 0.4575 0.8892 -7.9773 81.9017)" class="st38" cx="165.1" cy="57.4" rx="1.7" ry="3.4"/>
							</g>
							<path class="st45" d="M178.6,54.4c0,0,6.8,0.8,3.6,7"/>
						</g>
					</g>
					<path class="st46" d="M169.2,75.4c16.5,4,33.4-6.7,34.5-22.5c0.6-8.5-7.6-20.3-22.3-22c-8.7-1-19,3.2-31.1,11.2
						c0.2,2.1,1.3,4.7,0.7,7.3c-0.8,3.6-4.3,4.1-1.3,8.9C156.4,69,162.2,73.6,169.2,75.4z"/>
				</g>
			</g>
			<g>
				<ellipse transform="matrix(0.9834 -0.1815 0.1815 0.9834 -5.7091 26.5096)" class="st33" cx="142" cy="44.4" rx="6" ry="7.1"/>
				<path class="st1" d="M147.9,45.8c-2.8-0.8-8,1.1-11.9-0.5c0,0.1,0,0.1,0,0.2c0.7,3.9,3.9,6.5,7.2,5.9
					C145.8,51,147.6,48.6,147.9,45.8z"/>
				
					<ellipse transform="matrix(0.9834 -0.1815 0.1815 0.9834 -5.7016 26.1352)" class="st33" cx="139.9" cy="44.2" rx="6" ry="7.1"/>
				
					<linearGradient id="SVGID_29_" gradientUnits="userSpaceOnUse" x1="-38.4203" y1="-332.4301" x2="-22.9465" y2="-329.9749" gradientTransform="matrix(0.7695 0.6387 -0.6387 0.7695 -46.5259 319.8063)">
					<stop  offset="0" style="stop-color:#E7EAF6"/>
					<stop  offset="1" style="stop-color:#828282"/>
				</linearGradient>
				<path class="st47" d="M136.4,44.9c-0.4-2.3,0.8-4.5,2.7-4.8c1.9-0.4,3.8,1.2,4.3,3.5c0.1,0.3,0.1,0.6,0.1,1
					c0.8-0.4,1.6-0.8,2.3-1.3c0,0,0-0.1,0-0.1c-0.7-3.9-3.9-6.5-7.2-5.9c-3.3,0.6-5.3,4.2-4.6,8.1c0.1,0.3,0.1,0.7,0.2,1
					c0.9,0,1.8,0,2.6,0C136.7,45.8,136.5,45.4,136.4,44.9z"/>
				
					<ellipse transform="matrix(0.9834 -0.1815 0.1815 0.9834 -5.7016 26.1348)" class="st1" cx="139.9" cy="44.2" rx="3.6" ry="4.2"/>
				<path class="st1" d="M137,45.4c-0.4-2.2,0.8-4.2,2.8-4.6c1-0.2,1.9,0.1,2.7,0.7c-0.8-1.1-2.1-1.7-3.4-1.4
					c-1.9,0.4-3.2,2.5-2.7,4.8c0.3,1.5,1.2,2.7,2.4,3.3C137.9,47.6,137.2,46.6,137,45.4z"/>
			</g>
		</g>
		<g>
			<g>
				
					<linearGradient id="SVGID_30_" gradientUnits="userSpaceOnUse" x1="-548.2271" y1="-289.5191" x2="-549.3295" y2="-237.7087" gradientTransform="matrix(0.5217 0.8531 -0.8531 0.5217 90.4892 773.0328)">
					<stop  offset="5.357140e-03" style="stop-color:#DDDEDD"/>
					<stop  offset="0.609" style="stop-color:#D5D6D4"/>
					<stop  offset="1" style="stop-color:#CECFCC"/>
				</linearGradient>
				<path class="st48" d="M50.6,126.6c11,11.3,9.9,15.3,20.9,26.6c-6.2,3.8-7,4.5-15.8,7.9c-9.4,3.7-18.6,9.6-32.8,16.4
					c2.2,9.7,1.7,23-4,23.5c-4.8,0.5-13-15.6-17.4-23.5c-4-7.2,0.4-6.9,5.7-11.9C12.2,160.9,45.3,130,50.6,126.6z"/>
				<path class="st3" d="M1.7,170c-0.8,1.4-0.6,3.1,1.2,6.3c4.3,7.8,12.3,23.2,17.3,24.4c0.2-0.1,0.5-0.3,0.7-0.4
					C16,199,8,183.7,3.7,175.9c-1.9-3.5-2-5.3-1-6.7C2.4,169.5,2,169.7,1.7,170z"/>
				<g>
					<path class="st5" d="M34.2,140.7c-0.2,0.2-0.4,0.4-0.6,0.5l17.4,21.9c0.2-0.1,0.5-0.2,0.7-0.3L34.2,140.7z"/>
					<path class="st5" d="M46.3,165.5c0.2-0.1,0.5-0.2,0.7-0.4l-15.8-21.7c-0.2,0.2-0.4,0.4-0.6,0.5L46.3,165.5z"/>
					<path class="st5" d="M37.1,170.3c0.2-0.1,0.5-0.2,0.7-0.4L25,149c-0.2,0.2-0.4,0.4-0.6,0.5L37.1,170.3z"/>
					<path class="st5" d="M41.7,167.9c0.2-0.1,0.5-0.2,0.7-0.4l-14.2-21.3c-0.2,0.2-0.4,0.4-0.6,0.5L41.7,167.9z"/>
				</g>
			</g>
			<g>
				
					<linearGradient id="SVGID_31_" gradientUnits="userSpaceOnUse" x1="-876.0674" y1="-658.6571" x2="-872.3806" y2="-646.6923" gradientTransform="matrix(0.2296 0.9733 -0.9733 0.2296 -370.1209 1136.9075)">
					<stop  offset="5.357140e-03" style="stop-color:#DDDEDD"/>
					<stop  offset="1" style="stop-color:#CECFCC"/>
				</linearGradient>
				<path class="st49" d="M62.3,158c1.4,1.4,5.7-0.4,8.2-1.6c3.5-1.8,17.2-11,22.3-14.7c3-15-11-29.8-24.8-31.5
					c-2.9,3-10.3,11.2-16.5,13.2c-1.6,0.5-4.7,2.7-5.6,5.4C53.7,138,62.1,150.7,62.3,158z"/>
				<path class="st7" d="M51.5,123.4c-1.6,0.5-4.7,2.7-5.6,5.4c7.8,9.2,16.2,21.9,16.4,29.2c1.4,1.4,5.7-0.4,8.2-1.6
					C66.2,141.4,56.8,129.9,51.5,123.4z"/>
			</g>
		</g>
		<g>
			<path class="st6" d="M90.6,90.3c1.3,3.6,3.4,15.8,0.1,19.5c2.1,0.1,2.3,4-0.3,3.9c1.3,1.2,2.9,5,4.5,8c1,1.8-0.4,3.6-2.8,4.6
				c0.4,3.2-0.8,6-4.2,4.7c-0.5,1.6-3.8,2.4-5.1,0.3c-1.1,2-4.9,1.7-5.3-0.5c-3.4,0.8-3.3-2.6-3.5-4.8c-0.3-2.8-0.2-6.5,1.6-9.2
				c-1.9,0.8-2.9-2-0.9-3.2c-6.2-3.2-7.5-12.7-7.7-21.7C68.2,88,87.9,86.7,90.6,90.3z"/>
			<path class="st1" d="M87.7,130c0.8,0.5,1.9,1.2,3.2-0.3c2-1.2,0.3-5.5-0.2-8.2c0.2,0.9,0.9,1.7,1.3,2.6c0.5,1.1,1.7,1.1,2.6,0.5
				c-0.5,0.7-1.4,1.3-2.4,1.7c0.4,3.2-0.8,6-4.2,4.7c-0.5,1.5-3.4,2.3-4.8,0.6C84.1,132.2,87.1,131.4,87.7,130z"/>
			
				<linearGradient id="SVGID_32_" gradientUnits="userSpaceOnUse" x1="-4145.564" y1="-284.836" x2="-4127.936" y2="-284.836" gradientTransform="matrix(-0.9832 0.1824 0.1824 0.9832 -3929.8755 1143.6537)">
				<stop  offset="0" style="stop-color:#E7EAF6"/>
				<stop  offset="1" style="stop-color:#828282"/>
			</linearGradient>
			<path class="st50" d="M93.2,123.7c-1.5,0.3-1.9-1.6-2.6-3.1c-0.6,3.3,2.1,6.5-0.2,9.3c-1,1-1.9,0.3-3.2-0.3
				c-0.6,1.3-3.6,1.3-4.2,0.2c-1.9,1.1-3.3,1.4-4.4-0.4c-2.2,1.1-2.9-0.1-3-1.6c0.4-2.6,2.5-1.9,4.2-3.4c3.7-3.3,3.1-7.2,5.9-9.2
				c-0.3-1-3.9-1-4.2-2.5c-0.2-1.1,3.2-1.8,1.9-2.3c-1.4-0.9-3.7-0.9-5.2-2.6c-3.8-6.1-2.3-13.1-0.9-19.5c5.6-0.5,11.7,0.1,13.1,2
				c1.3,3.6,3.4,15.8,0.1,19.5c2.1,0.1,2.3,4-0.3,3.9c1.3,1.2,2.9,5,4.5,8c0.2,0.3,0.3,0.7,0.3,1C94.8,123.4,94,123.8,93.2,123.7z"
				/>
		</g>
	</g>
	<path class="st5" d="M120.2,184.2c0.1-0.3,0.3-0.6,0.4-0.9l-29.3-9.6c0,0,0,1.2,0,1.2c0,0-0.1,0-0.1,0l9.5,19.4c0.3,0,0.6,0,0.9,0
		l-9.3-19l17.4,18.5c0.2,0,0.4,0,0.5-0.1c0.2,0,0.4-0.1,0.6-0.1l-16.3-17.3l20.8,14.7c0.2-0.2,0.4-0.4,0.6-0.6l-19.9-14.1
		L120.2,184.2z"/>
</g>
</svg>
