<!-- Generator: Adobe Illustrator 21.1.0, SVG Export Plug-In  -->
<svg version="1.1"
	 xmlns="http://www.w3.org/2000/svg" xmlns:xlink="http://www.w3.org/1999/xlink" xmlns:a="http://ns.adobe.com/AdobeSVGViewerExtensions/3.0/"
	 x="0px" y="0px" width="198.9px" height="149.7px" viewBox="0 0 198.9 149.7" style="enable-background:new 0 0 198.9 149.7;"
	 xml:space="preserve">
<style type="text/css">
	.st0{fill:#FFFFFF;}
</style>
<defs>
</defs>
<g>
	<g>
		<path class="st0" d="M158.9,119.6c-0.5,0.5-0.8,1.3-0.7,2.1c0.1,0.7,0.5,1.4,1.1,1.7c1.1,0.7,2.4,0.3,3-0.4c0.7-0.7,1-1.9,0.4-3
			c-0.3-0.5-1-1-1.7-1.1C160.2,118.8,159.4,119,158.9,119.6z M158.9,119.6c1-1.1,3-1.4,4.5-0.4c0.7,0.5,1.3,1.4,1.4,2.4
			c0.1,1-0.3,2-1,2.8c-0.7,0.7-1.8,1.1-2.8,1c-1-0.1-1.9-0.6-2.4-1.4C157.4,122.5,157.8,120.6,158.9,119.6z"/>
	</g>
	<g>
		<g>
			<path class="st0" d="M0,121.6c0,7.5,3.2,15,8.7,20.1c2.7,2.6,6,4.6,9.5,5.9c3.5,1.3,7.3,1.8,11.1,1.6c7.5-0.4,14.7-4.1,19.5-9.9
				c4.9-5.7,7.1-13.5,6.2-21l0-0.1l0.1,0l78.2-0.1l0.3,0l0,0.3c-0.5,4.8,0.2,9.8,2.1,14.2c0.5,1.1,1,2.2,1.7,3.2
				c0.6,1.1,1.4,2,2.1,3c1.6,1.8,3.3,3.6,5.3,5l0.7,0.5c0.3,0.2,0.5,0.3,0.8,0.5l1.6,0.9l1.6,0.8c0.3,0.1,0.5,0.3,0.8,0.4l0.9,0.3
				c2.2,0.9,4.6,1.3,7,1.7l1.8,0.1l0.9,0l0.9,0l1.8-0.1l1.8-0.3l0.9-0.1l0.9-0.2l1.8-0.5l1.7-0.6l0.8-0.3l0.8-0.4
				c2.2-1,4.2-2.4,6.1-3.9c1.8-1.6,3.5-3.4,4.8-5.3c1.3-2,2.5-4.1,3.3-6.4c0.5-1.1,0.7-2.3,1-3.5c0.1-0.6,0.2-1.2,0.3-1.8
				c0.1-0.6,0.2-1.2,0.2-1.8c0.4-4.8-0.6-9.7-2.7-14c-2.1-4.3-5.4-8-9.4-10.7l-0.3-0.2l0-0.3l-0.1-18.4l0-4.6l0-2.3l0-1.1
				c0-0.4,0-0.7-0.1-1c-0.2-1.3-1-2.6-2.2-3.4c-0.6-0.4-1.2-0.7-1.8-0.8c-0.7-0.2-1.3-0.2-2.1-0.2l-4.6,0c-0.8,0-1.4,0-2.1,0.2
				c-0.7,0.2-1.3,0.5-1.8,0.9c-1.1,0.8-1.8,2.1-2,3.4c-0.1,0.3-0.1,0.6-0.1,1l0,1.1l0,2.3l0.1,18.4l0,0.7l-0.7,0.1l-3.4,0.6l-1,0.2
				l0-0.9l-0.1-27l0-13.5l0-1.7c0-0.6,0-1.2,0.1-1.8c0.2-1.2,0.6-2.4,1.2-3.5c0.3-0.5,0.7-1,1.1-1.5c0.2-0.2,0.4-0.5,0.6-0.7
				l0.6-0.6l2.4-2.4l0.6-0.6l0.6,0.6l1.5,1.5l0.7,0.7c0.1,0.1,0.2,0.2,0.3,0.3c0.1,0.1,0.2,0.1,0.3,0.2c0.2,0.1,0.4,0.2,0.7,0.2
				c0.2,0,0.7,0.1,1,0.1l2.1,0.2l8.2,0.6l16.4,1.2l1,0.1c0.2,0,0.5,0,0.7-0.1c0.4-0.1,0.8-0.5,1.1-0.9c0.2-0.4,0.3-0.9,0.3-1.3
				c0-0.2-0.1-0.5-0.2-0.7c-0.1-0.1-0.1-0.2-0.2-0.3c0,0-0.1-0.1-0.1-0.1l-0.2-0.2l-5.8-5.8l-11.7-11.6l-0.7-0.7l0.7-0.7l6.8-6.9
				l0.7-0.7l0.7,0.7l2.5,2.4c0.6,0.5,1.5,0.6,2.2,0.2c0.2-0.1,0.3-0.2,0.5-0.4l0.6-0.6l1.3-1.3l2.5-2.5c1.5-1.5,2.3-3.6,2.3-5.7
				c0-2.1-0.9-4.2-2.4-5.7C193,2.9,191,2,188.9,2c-2.1,0-4.2,0.8-5.7,2.3l-2.5,2.5L179.4,8l-0.6,0.6c-0.2,0.2-0.3,0.3-0.4,0.5
				c-0.4,0.7-0.3,1.6,0.2,2.2l2.4,2.5l0.7,0.7l-0.7,0.7l-6.9,6.8l-0.7,0.7l-0.7-0.7l-11.6-11.7l-5.8-5.8l-0.2-0.2
				c0,0-0.1-0.1-0.1-0.1c-0.1-0.1-0.2-0.1-0.3-0.2c-0.2-0.1-0.4-0.2-0.7-0.2c-0.5-0.1-0.9,0-1.3,0.3c-0.4,0.2-0.7,0.6-0.9,1.1
				c-0.1,0.2-0.1,0.5-0.1,0.7l0.1,1l1.2,16.4l0.6,8.2l0.2,2.1c0,0.3,0.1,0.7,0.1,1c0,0.2,0.1,0.5,0.2,0.7c0.1,0.1,0.1,0.2,0.2,0.3
				c0.1,0.1,0.1,0.2,0.3,0.3l0.7,0.7l1.5,1.5l0.6,0.6l-0.6,0.6l-2.7,2.7c-0.9,0.9-1.7,1.7-2.3,2.8c-1.3,2-2.1,4.3-2.2,6.7
				c-0.1,1.2,0,2.5,0,3.7l0,3.8l0,7.6l-0.1,30.3l0,0.5l-0.4,0.2c-3.1,1.5-5.9,3.7-8.3,6.3l-0.2,0.2l-0.3,0l-4.3,0l-0.7,0l0-0.7
				l0-7.9c0-0.6,0-1.4,0-1.9c0-0.6-0.1-1.2-0.4-1.7c-0.4-1.1-1.2-2-2.2-2.6c-0.5-0.3-1-0.5-1.6-0.6c-0.6-0.1-1.1-0.1-1.8-0.1l-3.9,0
				l-7.9,0l-0.6,0l0-0.6l0-3.6l0-1.8l0-0.9c0-0.3,0-0.5-0.1-0.7c-0.2-0.9-1.1-1.6-2-1.7c-1.1,0-2.3,0-3.5,0l-0.6,0l0-0.6
				c0-0.8,0-1.5-0.1-2.2c-0.1-0.7-0.3-1.4-0.6-2c-0.3-0.6-0.7-1.3-1.1-1.8c-0.4-0.6-1-1.1-1.5-1.6l-0.4-0.4l0.4-0.4
				c1-0.9,1.8-1.8,2.4-2.9c0.6-1.1,0.9-2.3,1-3.5c0.2-2.5-0.8-5-2.6-6.7l-1.4-1.4l-0.7-0.7c-0.2-0.2-0.4-0.3-0.7-0.5
				c-0.5-0.2-1.1-0.3-1.6-0.1c-0.3,0.1-0.5,0.2-0.7,0.3c-0.2,0.1-0.4,0.3-0.7,0.6l-5.6,5.5l-5.6,5.5l-1.4,1.4L89.4,68
				c-0.1,0.1-0.2,0.2-0.3,0.3c-0.2,0.2-0.3,0.5-0.4,0.7c-0.2,0.5-0.1,1.1,0.1,1.6c0.1,0.3,0.3,0.5,0.4,0.7l0.7,0.7
				c0.9,0.9,1.8,1.9,2.8,2.6c1,0.7,2.2,1.2,3.4,1.4c2.5,0.4,5.1-0.2,7-1.9l0.3-0.2l0.3,0.3l0.8,0.8c0.3,0.3,0.6,0.6,0.8,1
				c0.2,0.4,0.3,0.8,0.4,1.2c0.1,0.4,0,0.8,0,1.2l0,0.4l-0.4,0l-1.8,0c-0.6,0-1.2,0-1.7,0.2c-1,0.3-1.9,1.2-2.2,2.3
				c-0.1,0.3-0.1,0.5-0.1,0.8l0,0.9l0,1.8l0,3.7l0,14.7l0,0.3l-0.3,0l-6.6,0l-0.3,0l0-0.3l0-2.5c0-0.8,0-1.6-0.2-2.4
				c-0.3-1.6-1-3.1-2.1-4.3c-1.1-1.2-2.4-2.1-4-2.6c-1.5-0.5-3.2-0.4-4.8-0.4L61.5,91l-0.1,0l0-0.1l-9.2-20.7l0,0v0l0-5.7l0-2.8
				c0-0.9,0-1.9-0.1-2.8c-0.4-3.7-3.2-7.1-6.9-7.9c-1.8-0.4-3.8-0.2-5.5,0.5c-1.7,0.7-3.2,2-4.2,3.6c-1,1.6-1.4,3.5-1.3,5.4l0,5.7
				l0,0.1l-0.1,0l-4.9,0c-0.8,0-1.6,0-2.4,0.1c-0.8,0.1-1.6,0.4-2.2,0.8c-1.4,0.8-2.4,2.3-2.7,3.8c-0.2,0.8-0.1,1.6-0.1,2.4l0,2.4v0
				l0,0c-2.2,0.6-4.2,1.7-5.8,3.3c-1.6,1.6-2.7,3.7-3.2,5.9c-0.3,1.1-0.3,2.2-0.3,3.4l0,3.4l0,6.8v0l0,0c-3.8,2.5-6.9,6-9.1,10
				C1.1,112.5,0,117.1,0,121.6z M0,121.6c0-4.5,1.1-9.1,3.3-13.1c2.1-4,5.3-7.5,9.1-10l0,0l0-6.8l0-3.4c0-1.1,0-2.3,0.3-3.4
				c0.5-2.2,1.6-4.3,3.2-5.9c1.6-1.7,3.6-2.8,5.9-3.4l0,0.1l0-2.4c0-0.8-0.1-1.6,0.1-2.4c0.3-1.6,1.3-3.1,2.7-3.9
				c0.7-0.4,1.5-0.7,2.3-0.8c0.8-0.1,1.6-0.1,2.4-0.1l4.9,0L34,66.1l0-5.7c-0.1-1.9,0.3-3.8,1.3-5.5c1-1.6,2.5-3,4.3-3.7
				c1.8-0.8,3.8-1,5.6-0.5c3.8,0.8,6.7,4.3,7.1,8.1c0.1,1,0.1,1.9,0.1,2.8l0,2.8l0,5.7l0-0.1l9.2,20.7l-0.1-0.1l19.8-0.1
				c0.8,0,1.6,0,2.5,0c0.8,0,1.7,0.2,2.5,0.4c1.6,0.5,3.1,1.5,4.2,2.7c1.1,1.3,1.9,2.8,2.2,4.5c0.2,0.8,0.2,1.7,0.2,2.5l0,2.5
				l-0.3-0.3l6.6,0l-0.3,0.3l0-14.7l0-3.7l0-1.8l0-0.9c0-0.3,0-0.7,0.1-1c0.3-1.3,1.4-2.4,2.6-2.8c0.6-0.2,1.3-0.2,1.9-0.2l1.8,0
				l-0.4,0.4c0-0.4,0-0.8,0-1.1c0-0.3-0.1-0.7-0.3-1c-0.2-0.3-0.4-0.6-0.6-0.8l-0.8-0.8l0.5,0c-2.1,1.8-5,2.6-7.7,2.1
				c-1.4-0.2-2.7-0.7-3.8-1.5c-0.6-0.4-1.1-0.9-1.6-1.3l-1.4-1.4L88.6,72c-0.3-0.3-0.5-0.6-0.6-0.9c-0.3-0.7-0.4-1.5-0.1-2.2
				c0.1-0.4,0.3-0.7,0.5-1c0.1-0.2,0.2-0.3,0.4-0.4l0.3-0.3l1.4-1.4L96,60l5.5-5.6c0.2-0.2,0.5-0.5,0.8-0.7c0.3-0.2,0.7-0.4,1-0.5
				c0.7-0.2,1.6-0.1,2.3,0.2c0.4,0.2,0.7,0.4,1,0.6l0.7,0.7l1.4,1.4c2,1.9,3.1,4.7,3,7.5c-0.1,1.4-0.4,2.8-1.1,4
				c-0.3,0.6-0.7,1.2-1.2,1.7c-0.5,0.5-0.9,1-1.4,1.5V70c0.5,0.5,1.1,1,1.6,1.7c0.5,0.6,0.9,1.3,1.3,2.1c0.3,0.7,0.6,1.5,0.7,2.3
				c0.1,0.8,0.2,1.6,0.1,2.4l-0.6-0.6c1.2,0,2.3,0,3.6,0c1.4,0.1,2.7,1.2,3.1,2.6c0.1,0.3,0.1,0.7,0.1,1l0,0.9l0,1.8l0,3.6l-0.6-0.6
				l7.9,0l3.9,0c0.6,0,1.4,0,2.1,0.1c0.7,0.1,1.4,0.4,2,0.8c1.3,0.7,2.3,1.9,2.8,3.2c0.3,0.7,0.4,1.4,0.5,2.1c0,0.7,0,1.3,0,2l0,7.9
				l-0.7-0.7l4.3,0l-0.6,0.2c2.4-2.7,5.4-5,8.7-6.7l-0.4,0.7l-0.1-30.3l0-7.6l0-3.8c0-1.3,0-2.5,0-3.9c0.2-2.7,1-5.3,2.5-7.5
				c0.7-1.1,1.6-2.2,2.5-3.1l2.7-2.7v1.3l-1.5-1.5l-0.7-0.7c-0.1-0.1-0.3-0.3-0.4-0.4c-0.1-0.2-0.3-0.4-0.4-0.6
				c-0.2-0.4-0.4-0.8-0.4-1.3c-0.1-0.5-0.1-0.7-0.1-1.1l-0.2-2.1l-0.6-8.2L150,6.9l-0.1-1.1c0-0.5,0-0.9,0.2-1.3
				c0.3-0.9,0.9-1.6,1.6-2.1c0.8-0.5,1.7-0.7,2.6-0.5c0.4,0.1,0.9,0.2,1.3,0.4c0.2,0.1,0.4,0.2,0.6,0.4c0.1,0.1,0.2,0.2,0.3,0.2
				l0.2,0.2l5.8,5.8l11.7,11.6h-1.4l6.8-6.9v1.4l-1.3-1.3l-0.6-0.6c-0.2-0.2-0.4-0.4-0.7-0.7c-1-1.2-1.2-3.1-0.4-4.4
				c0.2-0.3,0.5-0.7,0.7-0.9l0.6-0.6l1.3-1.3l2.5-2.5c1.9-1.8,4.5-2.9,7.1-2.9c2.6,0,5.2,1.1,7.1,2.9c1.9,1.8,3,4.5,2.9,7.1
				c0,2.6-1,5.2-2.9,7.1l-2.5,2.5l-1.3,1.3l-0.6,0.6c-0.2,0.2-0.6,0.5-0.9,0.7c-1.4,0.8-3.2,0.6-4.4-0.4c-0.3-0.3-0.5-0.5-0.7-0.7
				l-0.6-0.6l-1.3-1.3h1.4l-6.9,6.8v-1.4l11.6,11.7l5.8,5.8l0.2,0.2c0.1,0.1,0.2,0.2,0.2,0.3c0.1,0.2,0.3,0.4,0.4,0.6
				c0.2,0.4,0.4,0.8,0.4,1.3c0.1,0.9,0,1.8-0.5,2.6c-0.5,0.8-1.2,1.4-2.1,1.6c-0.4,0.1-0.9,0.2-1.3,0.2l-1.1-0.1l-16.4-1.3l-8.2-0.6
				l-2.1-0.2c-0.4,0-0.6,0-1.1-0.1c-0.4-0.1-0.9-0.2-1.3-0.4c-0.2-0.1-0.4-0.2-0.6-0.4c-0.2-0.1-0.3-0.3-0.4-0.4l-0.7-0.7l-1.5-1.5
				l1.2,0l-2.4,2.4l-0.6,0.6c-0.2,0.2-0.4,0.4-0.5,0.6c-0.3,0.4-0.6,0.8-0.9,1.2c-0.5,0.9-0.9,1.9-1,2.9c-0.1,0.5-0.1,1-0.1,1.5
				l0,1.7l0,13.5l-0.1,27l-1-0.8l3.6-0.6l-0.7,0.8l0.1-18.4l0-2.3l0-1.1c0-0.4,0-0.8,0.1-1.3c0.3-1.7,1.2-3.3,2.6-4.3
				c0.7-0.5,1.5-0.9,2.3-1.1c0.8-0.2,1.7-0.2,2.5-0.2l4.6,0c0.7,0,1.6,0,2.4,0.2c0.8,0.2,1.6,0.6,2.3,1.1c1.4,1,2.4,2.5,2.7,4.2
				c0.1,0.4,0.1,0.8,0.1,1.3l0,1.1l0,2.3l0,4.6l-0.1,18.4l-0.3-0.5c4.1,2.8,7.5,6.7,9.7,11.2c2.2,4.5,3.2,9.6,2.7,14.5
				c0,0.6-0.1,1.2-0.2,1.9c-0.1,0.6-0.2,1.2-0.3,1.8c-0.3,1.2-0.6,2.4-1,3.6c-0.8,2.4-2,4.6-3.4,6.6c-1.4,2-3.1,3.9-5,5.5
				c-1.9,1.5-4,3-6.3,4l-0.8,0.4l-0.9,0.3l-1.8,0.6l-1.8,0.5l-0.9,0.2l-0.9,0.1l-1.8,0.3l-1.9,0.1l-0.9,0l-0.9,0l-1.9-0.1
				c-2.5-0.3-4.9-0.8-7.2-1.7l-0.9-0.3c-0.3-0.1-0.6-0.3-0.8-0.4l-1.7-0.8l-1.6-1c-0.3-0.2-0.5-0.3-0.8-0.5l-0.7-0.6
				c-2-1.4-3.8-3.2-5.4-5.1c-0.7-1-1.5-2-2.1-3.1c-0.7-1-1.2-2.2-1.7-3.3c-2-4.5-2.7-9.6-2.1-14.5l0.2,0.3l-78.2-0.1l0.1-0.1
				c0.9,7.5-1.4,15.3-6.3,21.1c-4.8,5.8-12.1,9.5-19.6,9.9c-3.8,0.2-7.6-0.3-11.1-1.6c-3.5-1.3-6.8-3.3-9.5-5.9
				C3.2,136.6-0.1,129.2,0,121.6z"/>
			<path class="st0" d="M105.3,63.1c0,0.6-0.1,1.2-0.4,1.7c-0.3,0.5-0.7,0.9-1.1,1.4c-0.8,0.9-1.5,1.8-2.3,2.7l-1.1,1.4
				c-0.5,0.5-1.1,0.9-1.8,1.2c-0.7,0.2-1.5,0.2-2.2,0c-0.7-0.2-1.4-0.7-1.9-1.1l-0.7-0.7l0.7-0.7c0.7-0.8,1.5-1.5,2.3-2.2
				c0.8-0.7,1.6-1.4,2.4-2.1c1.7-1.3,3.4-2.7,4.9-4.1l0.1-0.1l0.1,0.1C105,61.3,105.4,62.2,105.3,63.1z M105.3,63.1
				c0-0.5-0.1-0.9-0.3-1.3c-0.2-0.4-0.5-0.8-0.9-1.1h0.1c-1.4,1.6-2.7,3.3-4.1,4.9c-0.7,0.8-1.4,1.6-2.1,2.4
				c-0.7,0.8-1.5,1.6-2.2,2.3V69c0.4,0.4,0.6,0.6,1,0.8c0.4,0.2,0.8,0.2,1.3,0.2c0.4,0,0.9-0.2,1.3-0.5l1.4-1.1
				c0.9-0.7,1.8-1.5,2.7-2.3c0.4-0.4,0.9-0.7,1.2-1.2C105.2,64.3,105.3,63.7,105.3,63.1z"/>
			<path class="st0" d="M188.8,14.7c-0.8-0.5-1.7-1.2-2.7-2l0.3,0.2c-0.1,0-0.3-0.1-0.3-0.2l0,0l0,0l0,0l0,0l0,0l0,0l0,0l-0.1-0.1
				l-0.2-0.1l-0.3-0.3c-0.2-0.2-0.4-0.3-0.6-0.5l-1.3-1.1l-0.6-0.5l0.6-0.7l1.4-1.6l0.7-0.8c0.3-0.3,0.7-0.6,1-0.8
				c1.6-0.9,3.8-0.6,5,0.8c0.6,0.7,1,1.5,1.1,2.4c0.1,0.9-0.1,1.8-0.6,2.5c-0.5,0.7-1.2,1.1-1.8,1.6C189.9,14,189.3,14.4,188.8,14.7
				z M188.8,14.7c0.5-0.6,0.9-1.3,1.3-1.8c0.4-0.6,0.8-1,1-1.6c0.4-1.1,0.1-2.3-0.7-2.9c-0.8-0.7-1.9-0.8-2.8-0.3
				c-0.2,0.1-0.4,0.2-0.6,0.5l-0.8,0.7l-1.6,1.4V9.5l1.1,1.3c0.2,0.2,0.3,0.4,0.5,0.6l0.3,0.3l0.1,0.2l0.1,0.1l0,0l0,0l0,0l0,0l0,0
				l0,0l0,0c-0.1-0.1-0.2-0.2-0.3-0.2l0.3,0.2C187.4,12.8,188,13.7,188.8,14.7z"/>
			<path class="st0" d="M169.4,25.4c-2.6,3-5.4,6.3-8.5,9.6l-0.5,0.5l-0.6-0.5l-1.6-1.5l-0.2-0.2l0-0.3l-0.5-4.9l-0.4-4.9
				c-0.1-1.6-0.2-3.3-0.4-4.9c-0.1-1.6-0.2-3.3-0.3-4.9l-0.1-2.4l1.7,1.7c2.1,2.1,4.1,4.3,6,6.5C165.8,21.3,167.6,23.4,169.4,25.4z
				 M169.4,25.4l-6.6-5.8c-2.1-1.9-4.2-3.7-6.1-5.7l1.5-0.7c0.2,1.6,0.3,3.3,0.5,4.9c0.1,1.6,0.3,3.3,0.4,4.9l0.3,4.9l0.3,4.9
				l-0.2-0.5l1.5,1.6l-1.1,0C162.8,31.1,165.9,28.4,169.4,25.4z"/>
			<path class="st0" d="M164.4,38.6c2.6-3,5.4-6.3,8.5-9.6l0.5-0.5L174,29c1.1,1,2.1,2,3.1,2.9c1,1,2.1,2,3.1,3c2,2,4.1,4,6.1,6.1
				l1.8,1.9l-2.6-0.2c-3.3-0.3-6.5-0.6-9.8-1c-3.3-0.4-6.5-0.8-9.7-1.3l-0.1,0l0,0L164.4,38.6z M164.4,38.6c0.6,0.5,1.2,1,1.7,1.4
				l-0.1-0.1c3.3,0,6.6,0.1,9.8,0.2c3.3,0.1,6.5,0.3,9.8,0.5l-0.8,1.7c-2-2-4.1-4-6.1-6.1c-1-1-2-2.1-3-3.1c-1-1-2-2.1-2.9-3.1h1.1
				C171,32.9,167.9,35.6,164.4,38.6z"/>
			<path class="st0" d="M21.7,81.9l0.6,6c0.2,2.2,0.3,4.4,0.4,6.7l0,0.8l-0.8,0.2c-1.1,0.3-2.3,0.6-3.4,1L17.2,97l0-1.4
				c0-1.3,0-2.5,0.1-3.8c0-1.3,0.1-2.5,0.2-3.8c0-0.6,0.1-1.4,0.3-2c0.2-0.7,0.5-1.3,0.9-1.9C19.4,83.1,20.5,82.2,21.7,81.9z
				 M21.7,81.9c-1,0.8-1.8,1.7-2.3,2.8c-0.2,0.5-0.4,1.1-0.5,1.7c-0.1,0.6-0.1,1.1,0,1.7c0.1,1.3,0.1,2.5,0.2,3.8
				c0.1,1.3,0,2.5,0.1,3.8l-1.3-0.9c1.2-0.4,2.4-0.8,3.6-1l-0.8,0.9c0-2,0.2-4,0.4-6C21.3,86.5,21.5,84.3,21.7,81.9z"/>
			<path class="st0" d="M34.1,72.1c0,1.9,0,3.8,0.1,5.7c0,1.9,0.1,3.8,0.2,5.7l0.5,11.3l0.1,1l-1.1-0.2c-1.1-0.2-2.1-0.4-3.2-0.5
				c-1.1-0.1-2.1-0.2-3.2-0.1l-1,0l0-1c0-1.1,0-2.1,0-3.2l0-3.2c0.1-2.1,0.1-4.3,0.2-6.4l0-0.8l0.7,0.1c0.7,0.1,1.3-0.1,1.8-0.5
				c0.5-0.4,0.8-1,0.9-1.7c0-0.7-0.2-1.4-0.7-1.9c-0.5-0.5-1.2-0.8-1.9-0.8l-0.3,0l0-0.2c0-0.8,0.1-1.7,0.1-2.5l0-0.6l0-0.2
				c0-0.1,0.1-0.2,0.1-0.2c0.2-0.1,0.3,0,0.4-0.1l1.3,0c0.8,0,1.7,0,2.5,0l1.3,0l0.6,0l0.3,0C34,71.9,34.1,71.9,34.1,72.1z
				 M34.1,72.1c0-0.3-0.3-0.2-0.5-0.2l-0.6,0l-1.3,0c-0.8,0-1.7,0-2.5,0l-1.3,0c-0.3,0-0.3,0-0.3,0.2l0,0.6c0,0.8,0.1,1.7,0.1,2.5
				l-0.2-0.2c0.8-0.1,1.8,0.2,2.4,0.8c0.7,0.6,1.1,1.5,1.2,2.4c0,0.9-0.3,1.9-1,2.5c-0.6,0.7-1.7,1.1-2.6,1.1l0.7-0.7
				c0.1,2.1,0.2,4.3,0.2,6.4l0,3.2c0,1.1,0,2.1,0,3.2l-1-1c2.3,0,4.6,0.3,6.8,0.9l-1,0.8l0.5-11.3c0.1-1.9,0.2-3.8,0.2-5.7
				C34.1,75.8,34.1,73.9,34.1,72.1z"/>
			<path class="st0" d="M39.9,96.8c-0.4-3-0.7-6.3-0.9-9.7l-0.2-4.2l1.8,3.8c0.5,1.1,1.1,2.3,1.6,3.4c0.5,1.2,1.1,2.3,1.6,3.5
				c0.5,1.2,1,2.3,1.5,3.5c0.5,1.2,0.9,2.3,1.4,3.5l1.2,3.2l-2.3-2.3c-0.9-0.8-1.8-1.7-2.7-2.5C41.9,98.2,40.9,97.5,39.9,96.8z
				 M39.9,96.8c1.2,0.4,2.4,0.9,3.5,1.5c1.1,0.6,2.2,1.3,3.2,2.1l-1.2,0.9c-0.6-1.1-1.2-2.3-1.7-3.4c-0.6-1.1-1.1-2.3-1.6-3.4
				c-0.5-1.1-1-2.3-1.5-3.5c-0.5-1.2-1-2.3-1.4-3.5l1.6-0.3C40.6,90.2,40.3,93.3,39.9,96.8z"/>
			<path class="st0" d="M86.8,103.2l-19.8,0.5l-10.1,0.2l-1.3,0c-0.5,0-1-0.1-1.5-0.3c-0.9-0.4-1.7-1.1-2.2-2l-2.1-4.5
				c-2.8-6-5.5-12.1-8.2-18.2l-2-4.5l-0.3-0.6c-0.1-0.2-0.2-0.5-0.3-0.7C38.9,72.5,39,72,39,71.6l0-2.5l0-5l0-2.5l0-1.2l0-0.6
				c0-0.2,0-0.5,0.1-0.8c0.2-1.1,0.8-2.1,1.6-2.7c0.9-0.7,2-1,3.1-0.8c1.1,0.1,2.1,0.8,2.8,1.6c0.6,0.8,1,1.8,1,2.9l0,10
				c0,0.4,0,0.9,0,1.1c0,0.3,0.1,0.5,0.3,0.9l1,2.3l2,4.6c1.3,3,2.7,6.1,4,9.1l2,4.6l1,2.3c0.3,0.6,0.8,1,1.4,1.2
				c0.2,0,0.3,0.1,0.5,0.1l0.6,0l1.2,0l2.5,0l5,0.1c3.3,0,6.7,0.1,10,0.2c1.7,0,3.3,0,5,0.1c0.9,0.1,1.7,0.6,2.2,1.3
				c0.6,0.7,0.8,1.6,0.7,2.4l0,0L86.8,103.2z M86.8,103.2l-0.1-3.1l0,0c0.1-1.7-1.2-3.2-2.8-3.3c-1.6,0-3.3,0.1-5,0.1
				c-3.3,0.1-6.6,0.2-10,0.2l-5,0.1l-2.5,0l-1.2,0l-0.6,0c-0.3,0-0.5,0-0.8-0.1c-1-0.2-1.9-0.9-2.4-1.8l-1.1-2.3l-2.1-4.5
				c-1.4-3-2.8-6.1-4.1-9.1l-2-4.5l-1-2.3c-0.2-0.3-0.4-0.9-0.5-1.4c-0.1-0.6,0-0.9,0-1.4l0-10c0-1.3-1-2.5-2.1-2.6
				c-1.2-0.2-2.3,0.8-2.5,1.9c0,0.2,0,0.3,0,0.5l0,0.6l0,1.2l0,2.5l0,5l0,2.5c0,0.9,0,1.1,0.5,2l2,4.6c2.7,6.1,5.4,12.2,8,18.3
				l2,4.6c0.3,0.6,0.8,1.1,1.4,1.4c0.3,0.1,0.6,0.2,1,0.2l1.2,0l9.9,0.2L86.8,103.2z"/>
			<path class="st0" d="M111.5,103.2c-2,0.2-4.3,0.4-6.6,0.5l-0.5,0l0-0.5c-0.1-1.6-0.2-3.2-0.2-4.7c-0.1-1.6-0.1-3.2-0.2-4.7
				c0-1.6-0.1-3.2-0.1-4.7l0-4.7l0-1l1,0c2.2,0,4.4,0,6.6,0.1l1,0l0,0.9c-0.1,3.3-0.2,6.5-0.3,9.7C112,97.2,111.8,100.3,111.5,103.2
				z M111.5,103.2l-0.6-9.7c-0.2-3.1-0.3-6.2-0.3-9.2l0.9,0.9c-2.2,0-4.4,0-6.6,0.1l1-1l0,4.7c0,1.6-0.1,3.2-0.1,4.7
				c0,1.6-0.1,3.2-0.2,4.7c0,1.6-0.2,3.2-0.2,4.7l-0.5-0.5L111.5,103.2z"/>
			<path class="st0" d="M130.1,103.2c-2,0.2-4,0.3-6.2,0.5c-2.1,0.2-4.4,0.3-6.6,0.3l-0.8,0l0-0.9l-0.1-4.8l0-4.8l0-1l1,0
				c3.7,0,7.5,0.1,11.2,0.2l1.4,0.1c0.3,0,0.5,0.1,0.7,0.4c0.1,0.1,0.1,0.2,0.2,0.4c0,0.1,0,0.1,0,0.2l0,0l0,0.4l0,0.7l-0.2,2.9
				L130.1,103.2z M130.1,103.2l-0.5-5.7l-0.2-2.7l0-0.7l0-0.3l0,0c0,0,0,0.1,0,0.1c0,0.1,0,0.2,0.1,0.2c0.1,0.1,0.2,0.2,0.4,0.2
				l-1.4,0.1c-3.7,0.2-7.5,0.2-11.2,0.2l1-1l0,4.8l-0.1,4.8l-0.8-0.8c2,0.1,4.1,0.2,6.2,0.3L130.1,103.2z"/>
			<path class="st0" d="M170.4,72.1c0,2.1,0.2,4.3,0.5,6.4l0.1,0.4l-0.5,0.1c-1.1,0.1-2.2,0.3-3.3,0.4c-1.1,0.1-2.2,0.2-3.3,0.1
				l-1,0l0-1c0-1.1,0-2.2,0.1-3.3c0-0.5,0.1-1.1,0.2-1.6l0.1-0.8l0.1-0.4l0-0.2c0-0.3,0.2-0.5,0.4-0.6c0.1-0.1,0.3-0.1,0.3-0.1
				l0.1,0l0.2,0l0.4,0.1l0.8,0.1l1.6,0.2l1.6,0.1l0.8,0l0.4,0C170.2,71.8,170.4,71.9,170.4,72.1z M170.4,72.1c0-0.2-0.2-0.2-0.3-0.2
				l-0.4,0l-0.8,0l-1.6,0.1l-1.6,0.2l-0.8,0.1l-0.4,0.1l-0.2,0l-0.1,0c0,0,0.1,0,0.1,0c0.1,0,0.2-0.2,0.2-0.3l0,0.2l0.1,0.4l0.1,0.8
				c0.1,0.5,0.1,1.1,0.2,1.6c0.1,1.1,0.1,2.2,0.1,3.3l-1-1c1.1,0,2.2,0.1,3.3,0.1c1.1,0.1,2.2,0.2,3.3,0.4l-0.5,0.5
				C170.2,76.3,170.4,74.2,170.4,72.1z"/>
			<path class="st0" d="M170.4,95.6c-2.2-0.5-4.4-0.8-6.7-0.9l-0.6,0l0-0.7c-0.1-1.6-0.2-3.3-0.2-4.9c-0.1-1.6-0.1-3.3-0.1-4.9l0-1
				l1,0c1.1,0,2.2,0,3.3,0c1.1,0,2.2,0,3.3,0.1l0.9,0l0,0.9c-0.1,2-0.2,4-0.4,6L170.4,95.6z M170.4,95.6c-0.2-2.1-0.4-4.1-0.5-6
				c-0.2-1.9-0.3-3.6-0.4-5.4l0.9,0.9c-1.1,0-2.2,0.1-3.3,0.1c-1.1,0-2.2,0-3.3,0l1-1c0,1.6,0,3.3-0.1,4.9c0,1.6-0.1,3.3-0.2,4.9
				l-0.6-0.7C166.2,93.8,168.4,94.5,170.4,95.6z"/>
			<path class="st0" d="M139,121.6c0-5.7,2.3-11.4,6.3-15.6c4-4.2,9.7-6.7,15.6-6.8c5.9-0.1,11.8,2.1,16.1,6.3
				c2.1,2.1,3.9,4.6,5,7.3c1.2,2.8,1.8,5.7,1.8,8.7c0,3-0.6,6-1.8,8.7c-1.2,2.8-2.9,5.3-5,7.3c-4.3,4.2-10.2,6.5-16.1,6.3
				c-5.9-0.1-11.6-2.7-15.6-6.8C141.3,133.1,139,127.4,139,121.6z M139,121.6c0,2.9,0.6,5.7,1.7,8.4c1.1,2.6,2.8,5,4.8,7
				c4.1,4,9.8,6.2,15.4,6c5.6-0.1,11-2.5,14.9-6.5c3.8-3.9,6.1-9.4,6-14.9c0-5.5-2.2-10.9-6-14.9c-3.8-4-9.2-6.4-14.9-6.5
				c-5.6-0.1-11.3,2-15.4,6c-2,2-3.7,4.4-4.8,7C139.6,115.9,139.1,118.8,139,121.6z"/>
			<path class="st0" d="M53.8,112.5c-0.5-1.2-1-2.3-1.6-3.4l-0.1-0.2l0.2,0l21-0.4l21-0.3c7-0.1,14-0.1,21-0.1l21-0.1l1.6,0
				l-0.8,1.5c-0.6,1.1-1,2.2-1.5,3.4l-0.2,0.7l-0.7,0l-20.4-0.1c-6.8,0-13.6-0.1-20.3-0.2l-20.2-0.3L53.8,112.5z M53.8,112.5
				l20.4-0.4l20.2-0.3c6.7-0.1,13.4-0.2,20.1-0.2l20.1-0.1l-0.9,0.7c0.4-1.2,0.9-2.4,1.5-3.6l0.9,1.4l-21-0.1c-7,0-14,0-21-0.1
				l-21-0.3l-21-0.4l0.1-0.2C53,110.1,53.5,111.3,53.8,112.5z"/>
			<path class="st0" d="M5.8,121.6c0-5.7,2.3-11.4,6.3-15.6c4-4.2,9.7-6.7,15.6-6.8c5.9-0.1,11.8,2.1,16.1,6.3
				c2.1,2.1,3.9,4.6,5,7.3c1.2,2.8,1.8,5.7,1.8,8.7c0,3-0.6,6-1.8,8.7c-1.2,2.8-2.9,5.3-5,7.3c-4.3,4.2-10.2,6.5-16.1,6.3
				c-5.9-0.1-11.6-2.7-15.6-6.8C8.1,133.1,5.8,127.4,5.8,121.6z M5.8,121.6c0,2.9,0.6,5.7,1.7,8.4c1.1,2.6,2.8,5,4.8,7
				c4.1,4,9.8,6.2,15.4,6c5.6-0.1,11-2.5,14.9-6.5c3.8-3.9,6.1-9.4,6-14.9c0-5.5-2.2-10.9-6-14.9c-3.8-4-9.2-6.4-14.9-6.5
				c-5.6-0.1-11.3,2-15.4,6c-2,2-3.7,4.4-4.8,7C6.4,115.9,5.8,118.8,5.8,121.6z"/>
		</g>
	</g>
	<g>
		<path class="st0" d="M27.7,118.7c-0.8,0-1.5,0.4-2,0.9c-0.4,0.6-0.6,1.3-0.4,2c0.3,1.3,1.4,1.9,2.4,1.9c1,0,2.1-0.6,2.4-1.9
			c0.1-0.6,0-1.4-0.4-2C29.2,119.1,28.5,118.7,27.7,118.7z M27.7,118.7c1.5,0,3.1,1.1,3.4,2.9c0.1,0.9-0.1,1.9-0.7,2.7
			c-0.6,0.8-1.6,1.2-2.7,1.2c-1,0-2-0.5-2.7-1.2c-0.6-0.8-0.9-1.8-0.7-2.7C24.6,119.8,26.2,118.7,27.7,118.7z"/>
	</g>
</g>
</svg>
