<!-- Generator: Adobe Illustrator 21.1.0, SVG Export Plug-In  -->
<svg version="1.1"
	 xmlns="http://www.w3.org/2000/svg" xmlns:xlink="http://www.w3.org/1999/xlink" xmlns:a="http://ns.adobe.com/AdobeSVGViewerExtensions/3.0/"
	 x="0px" y="0px" width="139.1px" height="265.5px" viewBox="0 0 139.1 265.5" style="enable-background:new 0 0 139.1 265.5;"
	 xml:space="preserve">
<style type="text/css">
	.st0{fill:none;stroke:#FFFFFF;stroke-width:3;stroke-miterlimit:10;}
</style>
<defs>
</defs>
<g>
	<path class="st0" d="M70,1.9c1.3,1.7,2.5,3.5,3.8,5.2c7,9.4,13,19.5,17.9,30.2c0.1,0.1,0.1,0.3,0.1,0.3c-14.8,0-29.6,0-44.5,0
		c0.7-1.5,1.4-3.1,2.2-4.8C54.8,22.1,61.3,12,68.8,2.6c0.2-0.2,0.3-0.5,0.4-0.8C69.6,1.2,69.8,1.8,70,1.9z"/>
	<path class="st0" d="M44.6,43.8c0.4,0,0.7,0,1.1,0c10.4,0,20.7,0,31.1,0c5.5,0,11.1,0,16.6,0c0.8,0,1.2,0.2,1.4,1
		c5.7,14.4,9.2,29.4,11,44.7c0.7,6.2,1.3,12.5,1.6,18.7c1,20.5-0.4,40.9-4.9,61c-0.2,1-0.6,1.6-1.6,1.7c-2.7,0.3-3.7,1.8-3.9,4.5
		c-0.2,2.7-1,5.4-1.5,8.1c-0.1,0.7-0.4,1.1-1.2,1.4c-16.6,5.4-33.1,5.4-49.7,0c-0.8-0.2-1.1-0.6-1.3-1.4c-0.6-3.5-1.4-6.9-2-10.4
		c-0.1-0.8-0.5-1.3-1.2-1.4c-2.9-0.3-3.8-2.1-4.3-4.8c-5.4-26.2-5.9-52.6-2.5-79.1c1.9-14.7,5.4-29.1,10.8-42.9
		C44.3,44.6,44.5,44.2,44.6,43.8z M79.7,68c-0.5-0.4-1.1-0.9-1.7-1.5c-4.9-4-11-4.2-16.2-0.6c-3.7,2.6-6.3,6.2-8.1,10.3
		c-5.9,13.5-6.1,27.2-1.5,41.1c1.6,4.9,4.2,9.3,8.1,12.8c3.7,3.2,7.9,4.6,12.7,3.2c3.6-1,6.3-3.4,8.6-6.3c3.6-4.7,5.7-10.1,6.9-15.8
		c2-9,1.9-18.1-0.4-27C86.7,78.2,84.2,72.7,79.7,68z"/>
	<path class="st0" d="M114.1,124.9c3.7,0.6,7.3,1.1,10.9,1.8c4.3,0.9,7.3,3.5,9.2,7.5c1.5,3.2,2.2,6.5,2.6,10
		c1.5,11.5,0.9,22.9-0.5,34.4c-1.4,11.3-4.4,22.1-7.8,32.9c0,0.1-0.1,0.1-0.2,0.3c-0.8-1.2-1.6-2.3-2.4-3.4
		c-5-7.2-9.9-14.6-13.2-22.9c-1.6-4.1-2.8-8.3-4.1-12.5c-0.1-0.5-0.1-1,0-1.5c3.4-15.2,5.3-30.5,5.6-46
		C114,125.4,114,125.3,114.1,124.9z"/>
	<path class="st0" d="M25,124.9c0.3,5.1,0.5,9.9,0.8,14.7c0.7,8.8,1.9,17.4,3.7,26.1c0.2,1,0.2,2,0.6,2.9c1.2,3.3,0.2,6.3-0.7,9.4
		c-3.6,12-10.3,22.4-17.4,32.5c-0.3,0.4-0.6,0.9-1,1.4c-0.1-0.1-0.2-0.2-0.2-0.3c-4.6-13.8-7.8-27.9-8.8-42.5
		c-0.6-9.1-0.7-18.2,0.9-27.2c0.6-3.2,1.4-6.3,3.1-9.1c1.7-2.9,4.2-5,7.6-5.7C17.2,126.1,21.1,125.5,25,124.9z"/>
	<path class="st0" d="M66.4,262.6c-0.9-0.8-1.2-2-1.2-3.3c0-9.2,0-18.4,0-27.6c0-9.3,0-18.5,0-27.8c0-1.7,0.1-3.2,1.5-4.4
		c1.3-1.1,2.8-1.4,4.5-0.8c1.7,0.7,2.7,2,2.7,3.8c0.1,2.9,0.1,5.7,0.1,8.6c0,16,0,31.9,0,47.9c0,1.3-0.2,2.5-1.1,3.5
		C71.2,264.4,68.3,264.6,66.4,262.6z"/>
	<path class="st0" d="M53.5,232.4c-1.1,1-2.5,1.4-4.1,0.9c-1.6-0.5-2.6-1.5-3-3.2c-0.1-0.5-0.2-1-0.2-1.5c0-9.8,0-19.6,0-29.4
		c0-1.7,0.5-3.2,2-4.2c2.5-1.6,5.9-0.3,6.6,2.7c0.2,0.7,0.1,1.5,0.1,2.2c0,9.5,0,19,0,28.4C55,229.9,54.7,231.2,53.5,232.4z"/>
	<path class="st0" d="M91.6,232.3c-1.3,1.1-2.8,1.6-4.5,0.9c-1.8-0.7-2.8-2.1-2.9-4c-0.1-2.7,0-5.5,0-8.2c0-7.3,0-14.6,0-21.9
		c0-1.5,0.4-2.9,1.7-3.8c1.4-1.1,2.9-1.3,4.5-0.5c1.7,0.8,2.5,2.2,2.5,4.1c0,4.2,0,8.5,0,12.7c0,5.7,0,11.4,0,17.2
		C92.9,230.1,92.6,231.3,91.6,232.3z"/>
</g>
</svg>
